<svg xmlns="http://www.w3.org/2000/svg" xmlns:xlink="http://www.w3.org/1999/xlink" id="Layer_1" x="0px" y="0px" viewBox="0 0 1920 474.7" xml:space="preserve"><g>	<path fill="#FFA23F" d="M802.2,156.1v-63h38.6v3.6h-5.1c-5.9,0-8.3,1.8-11.1,5.3c-1.6,2.2-2.6,7.5-2.6,16v91.4  c0,8.5,0.8,13.7,2.6,16c2.6,3.4,5.3,5.1,10.9,5.1h5.3v3.8h-38.6v-68.7h-75.2v68.7h-38.6v-3.8h5.3c5.7,0,8.3-1.6,10.9-5.1  c1.8-2.2,2.6-7.5,2.6-16V118c0-8.5-1-13.7-2.6-16c-2.8-3.4-5.3-5.3-11.1-5.3h-5.1v-3.6h38.6v63H802.2L802.2,156.1z"></path>	<path fill="#FFA23F" d="M910.4,234.2H869v-3.8h5.3c5.7,0,8.3-1.6,10.9-5.1c1.8-2.2,2.6-7.5,2.6-16V118c0-8.5-1-13.7-2.6-16  c-2.8-3.4-5.3-5.3-11.1-5.3h-5.1v-3.6h114.9v9.3h-73.5v53.7h73.5v9.5h-73.5v58.6h73.5v10.1L910.4,234.2L910.4,234.2z"></path>	<path fill="#FFA23F" d="M1128.6,230.4h5.3v3.8h-40.2l-52.1-78.1h17.6c27.1,0,39.3-7.7,39.3-25.9c0-23.6-27.3-26.2-41.2-27.9  c-12.3-1.4-49.3-5.9-49.3-5.9V93h52.3c9.7,0,55.7-0.8,55.7,36.9c0,22.6-12.1,34.9-50.5,35.4l34.1,50.3  C1104.9,221.6,1121.4,230.3,1128.6,230.4L1128.6,230.4z"></path>	<path fill="#FFA23F" d="M1226.6,237.4c-41.2,0-74.5-33.1-74.5-73.9s33.3-73.8,74.5-73.8c8.3,0,15.2,1.4,21,4c10.9,5.1,24,12.9,24-4  h3.6V126h-6.9c-9.1-20-22-28.9-41.8-28.9c-29.7,0-54.3,25.6-54.3,66.4s24.7,66.6,54.3,66.6c19.8,0,35.7-12.7,44.8-32.7l7.9,3.4  C1267.4,223.9,1252.6,237.4,1226.6,237.4z"></path>	<path fill="#FFA23F" d="M1426.8,93.1h30.9v3.6h-5.1c-5.9,0-8.3,1.8-11.1,5.3c-1.6,2.2-2.6,7.5-2.6,16v69.3  c0,16.7-0.8,50.6-57.1,50.6c-56.3,0-55.5-50.6-55.5-50.6V118c0-8.5-1-13.7-2.6-16c-2.8-3.4-5.3-5.3-11.1-5.3h-5.1v-3.6h41.8  l-0.2,94.1c0,38,21.8,41.2,33.1,41.2c47.9,0,44.6-34.3,44.6-41.2L1426.8,93.1L1426.8,93.1z"></path>	<path fill="#FFA23F" d="M1516.8,234.2h-30.9v-3.8h5.3c5.7,0,8.3-1.6,10.9-5.1c1.8-2.2,2.6-7.5,2.6-16V118c0-8.5-1-13.7-2.6-16  c-2.8-3.4-5.3-5.3-11.1-5.3h-5.1v-3.6h41.4v131h73.5v10.1H1516.8L1516.8,234.2z"></path>	<path fill="#FFA23F" d="M1670.4,234.2H1629v-3.8h5.3c5.7,0,8.3-1.6,10.9-5.1c1.8-2.2,2.6-7.5,2.6-16V118c0-8.5-1-13.7-2.6-16  c-2.8-3.4-5.3-5.3-11.1-5.3h-5.1v-3.6h114.9v9.3h-73.5v53.7h73.5v9.5h-73.5v58.6h73.5v10.1L1670.4,234.2L1670.4,234.2z"></path>	<path fill="#FFA23F" d="M1820.4,89.7c8.3,0,15.2,1.4,21,4c10.9,5.1,24.1,12.9,24.1-4h3.6V126h-6.9c-9.1-20-22-28.9-41.8-28.9  c-29.7,0-42,29.5,6,54.1c70.2,34.5,46.2,85.4-5.1,85.4c-8.9,0-15.2-1.2-21-3.6c-11.1-4.8-24.2-12.5-23.8,4.4h-3.8l-0.6-36.3h6.9  c9.5,19.8,22.8,28,42.4,28c27.3,0,44.8-36.3-12.9-62.4C1752,139.5,1779.3,89.6,1820.4,89.7L1820.4,89.7z"></path>	<path fill="#FFA23F" d="M757.2,365c0,3.6,0.4,5.8,1,6.8c1.2,1.5,2.2,2.1,4.7,2.1h2.1v1.6h-25.6v-1.6h2.2c2.4,0,3.5-0.7,4.6-2.1  c0.8-1,1.1-3.1,1.1-6.8v-39.8l-21.6,50.3H724l-21.1-51.1V365c-0.1,3.6,0.2,5.8,1,6.8c1.2,1.5,2.2,2.1,4.7,2.1h2.1v1.6h-20.9v-1.6  h2.2c2.4,0,3.5-0.7,4.6-2.1c0.8-1,1.1-3.1,1.1-6.8v-38.7c0-3.6-0.4-5.8-1.1-6.8c-1.2-1.5-2.2-2.2-4.7-2.2h-2.1v-1.5h18.4l19,46  l20.2-46h9.7L757.2,365L757.2,365z"></path>	<path fill="#FFA23F" d="M766.6,377H738v-4.6h3.7c1.9,0,2.6-0.5,3.4-1.6c0.2-0.3,0.8-1.5,0.8-5.9v-32.6L726.8,377H723l-18.6-45v33  c-0.1,4.4,0.4,5.5,0.7,5.8c0.9,1.1,1.5,1.6,3.6,1.6h3.6v4.6h-23.9v-4.6h3.7c1.9,0,2.6-0.5,3.4-1.6c0.2-0.3,0.8-1.5,0.8-5.9v-38.7  c0-4.5-0.7-5.7-0.8-5.9c-0.9-1.1-1.5-1.6-3.5-1.6h-3.6v-4.5h20.8l18.1,43.8l19.2-43.8h12.2V365c0,4.5,0.5,5.6,0.7,5.9  c0.8,1,1.5,1.5,3.5,1.5h3.6v4.6V377z M746.2,374h12.1c-0.5-0.4-0.8-0.8-1.3-1.3c-1-1.3-1.4-3.7-1.4-7.7v-47.7h-7.3l-21.2,48.4  l-20-48.4h-5.7l23.4,56.6l24-55.9V365c0,4.2-0.4,6.5-1.5,7.7C747,373.2,746.7,373.7,746.2,374L746.2,374z M696.6,374h7.5  c-0.5-0.4-0.8-0.8-1.3-1.3c-1-1.3-1.5-3.6-1.5-7.7v-47.7h-4.8c0.4,0.4,0.8,0.8,1.3,1.3c1,1.3,1.5,3.9,1.5,7.7V365  c0,4.2-0.4,6.5-1.5,7.7C697.4,373.2,697.1,373.7,696.6,374z"></path>	<path fill="#FFA23F" d="M820.6,314.3c17.3,0,31.5,14,31.5,31.3c0,17.3-14.2,31.3-31.5,31.3c-17.3,0-31.5-14-31.5-31.3  C789,328.3,803.1,314.3,820.6,314.3z M820.3,373.8c12.6,0,22.7-10.9,22.7-28.2c0-17.3-10.2-28.1-22.7-28.1  c-12.6,0-22.7,10.9-22.7,28.1C797.6,362.8,807.8,373.8,820.3,373.8z"></path>	<path fill="#FFA23F" d="M820.6,378.4c-18.2,0-33.1-14.7-33.1-32.8c0-18.1,14.8-32.8,33.1-32.8c18.3,0,33.1,14.7,33.1,32.8  C853.6,363.8,838.8,378.4,820.6,378.4z M820.6,315.8c-16.6,0-30,13.4-30,29.8c0,16.4,13.5,29.8,30,29.8c16.6,0,30-13.4,30-29.8  C850.6,329.2,837.1,315.8,820.6,315.8z M820.3,375.4c-14,0-24.2-12.5-24.2-29.7c0-17.2,10.2-29.6,24.2-29.6s24.2,12.4,24.2,29.6  C844.6,362.8,834.4,375.4,820.3,375.4z M820.3,319c-12.5,0-21.3,10.9-21.3,26.7c0,15.7,8.9,26.7,21.3,26.7s21.3-11.2,21.3-26.7  C841.6,330.2,832.8,319,820.3,319z"></path>	<path fill="#FFA23F" d="M873.9,317.3h-2.1v-1.5h25.6v1.5h-2.2c-6.8,0-6.4,4.9-5.2,8.7l15.4,37.2l16.1-36.9c1.5-3.7-1.9-9-5.8-9  h-2.1v-1.5h21.2v1.5h-2.1c-2.4,0-5.4,5.5-7,8.7l-21.5,50.9h-1.9l-21.5-51.5c-1.4-3-3.6-8-6.6-8L873.9,317.3z"></path>	<path fill="#FFA23F" d="M904.9,378.4h-3.9l-21.9-52.6c-1-2.2-3.1-6.9-5.2-6.9h-3.6v-4.5h28.6v4.5h-3.7c-1.9,0-3.3,0.4-3.9,1.3  c-0.8,1-0.7,2.9,0.1,5.5l14,33.8l14.7-33.7c0.5-1.3,0.2-3.1-0.9-4.6c-1-1.4-2.3-2.2-3.6-2.2H912v-4.5h24.2v4.5h-3.6  c0,0-1.8,0.1-5.7,7.9L904.9,378.4L904.9,378.4z M877.4,317.3c2,1.8,3.4,4.9,4.5,7.3l0.1,0.2l21,50.5l21.1-49.8c2-4,3.7-6.7,5.3-8.2  h-9.8c0.7,0.5,1.4,1.3,2,2.1c1.6,2.4,2.1,5.2,1.1,7.4l-17.5,40.2l-16.7-40.4c-1.1-3.7-1.1-6.4,0.3-8.3c0.3-0.4,0.6-0.7,1-1h-12.5  L877.4,317.3z"></path>	<path fill="#FFA23F" d="M984.2,317.3H982c-2.4,0-3.5,0.8-4.6,2.2c-0.8,1-1.1,3.1-1.1,6.8v38.7c-0.1,3.6,0.4,5.8,1,6.8  c1.2,1.5,2.2,2.1,4.7,2.1h2.1v1.6h-25.6V374h2.2c2.4,0,3.5-0.7,4.6-2.1c0.8-1,1.1-3.1,1.1-6.8v-38.7c0-3.6-0.4-5.8-1.1-6.8  c-1.2-1.5-2.2-2.2-4.7-2.2h-2.1v-1.5h25.6V317.3z"></path>	<path fill="#FFA23F" d="M985.7,377h-28.6v-4.6h3.7c1.9,0,2.6-0.5,3.4-1.6c0.2-0.3,0.8-1.5,0.8-5.9v-38.7c0-4.5-0.7-5.7-0.9-5.9  c-0.9-1.1-1.5-1.6-3.5-1.6h-3.6v-4.5h28.6v4.5H982c-1.9,0-2.5,0.5-3.5,1.6c-0.2,0.3-0.8,1.5-0.8,5.9V365c-0.1,4.5,0.6,5.7,0.7,5.9  c0.9,1,1.5,1.5,3.5,1.5h3.6L985.7,377L985.7,377z M965.4,374h12.1c-0.5-0.4-0.9-0.8-1.3-1.3c-1-1.4-1.5-3.9-1.5-7.7v-38.7  c0.1-4.2,0.5-6.5,1.5-7.7c0.4-0.5,0.8-0.9,1.2-1.3h-12.1c0.4,0.4,0.8,0.8,1.3,1.3c1,1.3,1.4,3.9,1.4,7.7V365c0,4.2-0.4,6.5-1.4,7.7  C966.2,373.2,965.8,373.6,965.4,374L965.4,374z"></path>	<path fill="#FFA23F" d="M1059.4,361.4v-35.1c0-3.6-0.4-5.8-1.1-6.8c-1.2-1.5-2.2-2.2-4.7-2.2h-2.1v-1.5h13.1v59.8h-5.1l-38.1-54.6  v44.1c-0.1,3.6,0.2,5.8,1,6.8c1.2,1.5,2.2,2.1,4.7,2.1h2.1v1.6h-21V374h2.2c2.4,0,3.5-0.7,4.6-2.1c0.8-1,1.1-3.1,1.1-6.8v-38.7  c0-3.6-0.4-5.8-1.1-6.8c-1.2-1.5-2.2-2.2-4.7-2.2h-2.1v-1.5h18.4L1059.4,361.4L1059.4,361.4z"></path>	<path fill="#FFA23F" d="M1065.9,377h-7.3l-35.8-51.3V365c-0.1,4.4,0.4,5.5,0.7,5.8c0.9,1.1,1.5,1.6,3.6,1.6h3.6v4.6h-23.9v-4.6h3.7  c1.9,0,2.6-0.5,3.4-1.6c0.2-0.3,0.8-1.5,0.8-5.9v-38.7c0-4.5-0.7-5.7-0.8-5.9c-0.9-1.1-1.5-1.6-3.5-1.6h-3.6v-4.5h20.7l30.6,42.4  v-30.4c0-4.5-0.7-5.7-0.9-5.9c-0.9-1.1-1.5-1.6-3.5-1.6h-3.6v-4.5h16.1v62.7L1065.9,377z M1060.1,374h2.8v-56.7h-4.8  c0.4,0.4,0.9,0.8,1.3,1.3c1,1.4,1.5,3.9,1.5,7.7V366l-35.1-48.7h-5.3L1060.1,374z M1014.8,374h7.5c-0.5-0.4-0.8-0.8-1.3-1.3  c-1-1.3-1.5-3.6-1.5-7.7v-47.7h-4.8c0.4,0.4,0.9,0.8,1.3,1.3c1,1.3,1.4,3.9,1.4,7.7V365c0,4.2-0.4,6.5-1.4,7.7  C1015.7,373.2,1015.3,373.7,1014.8,374z"></path>	<path fill="#FFA23F" d="M1137.7,329.7c-3.9-8.5-9.3-12.2-17.7-12.2c-12.6,0-23,10.9-23,28.1c0,17.2,10.5,28.2,23,28.2  c4.8,0,9.1-1.8,12.6-5v-14.4c0-3.6-0.4-5.8-1.1-6.8c-1.2-1.5-2.2-2.2-4.7-2.2h-2.1v-1.5h17.7v17.5c-5,9.7-11.3,15.5-22.3,15.5  c-17.5,0-31.5-14-31.5-31.3c0-17.3,14.1-31.3,31.5-31.3c3.5,0,6.4,0.6,8.9,1.7c4.6,2.1,10.2,5.5,10.2-1.7h1.5v15.4H1137.7z"></path>	<path fill="#FFA23F" d="M1120,378.4c-18.2,0-33.1-14.7-33.1-32.8c0-18.1,14.8-32.8,33.1-32.8c3.6,0,6.8,0.6,9.5,1.8l1.3,0.6  c2.1,1,5.1,2.4,6.1,1.8c0.5-0.3,0.7-1.3,0.7-2.7v-1.5h4.5v18.4h-5.4l-0.4-0.9c-3.6-8-8.5-11.4-16.3-11.4  c-12.4,0-21.5,11.2-21.5,26.7c0,15.5,9.1,26.7,21.5,26.7c4.1,0,7.8-1.4,11.1-4.2v-13.8c0-4.5-0.7-5.7-0.8-5.9  c-0.9-1.1-1.5-1.6-3.5-1.6h-3.6v-4.5h20.7v17.5h-0.1v2.2c-6,11.4-13.1,16.3-23.8,16.3L1120,378.4z M1120,315.8  c-16.6,0-30,13.4-30,29.8c0,16.4,13.5,29.8,30,29.8c9.4,0,15.4-4.1,20.7-14.2v-15.8h-9.4c0.4,0.4,0.8,0.8,1.3,1.3  c1,1.4,1.4,3.9,1.4,7.7v15.1l-0.5,0.4c-3.9,3.5-8.6,5.3-13.6,5.3c-14.2,0-24.5-12.5-24.5-29.7c0-17.2,10.3-29.6,24.5-29.6  c8.6,0,14.6,3.9,18.7,12.2h0.5V319c0,0-0.4,0.4-0.7,0.5c-2.4,1.5-5.7-0.1-9-1.6l-1.2-0.5C1125.9,316.4,1123.2,315.8,1120,315.8z"></path>	<path fill="#FFA23F" d="M1241.4,314.3c3.5,0,6.4,0.6,8.9,1.7c4.6,2.1,10.1,5.5,10.1-1.7h1.5v15.4h-2.9c-3.9-8.5-9.3-12.2-17.7-12.2  c-12.6,0-17.8,12.5,2.5,22.9c29.7,14.6,19.6,36.1-2.1,36.1c-3.7,0-6.4-0.5-8.9-1.5c-4.7-2.1-10.3-5.3-10.1,1.9h-1.6l-0.2-15.4h2.9  c4,8.4,9.7,11.9,17.9,11.9c11.5,0,19-15.4-5.5-26.4c-23.9-11.5-12.4-32.6,5-32.6L1241.4,314.3z"></path>	<path fill="#FFA23F" d="M1224.4,378.4h-4.6l-0.3-18.4h5.4l0.4,0.8c3.7,7.7,8.7,11.1,16.6,11.1c4.5,0,8.3-2.7,9.1-6.5  c1.3-5.9-4.4-12.3-15.2-17.1c-10.7-5.2-16-13.2-14.1-21.4c1.9-8.2,10.2-14.1,19.8-14.1c3.6,0,6.8,0.6,9.5,1.8l1.3,0.6  c2.1,1,5.1,2.4,6.1,1.8c0.5-0.3,0.7-1.3,0.7-2.7v-1.5h4.5v18.4h-5.4l-0.4-0.9c-3.6-8-8.5-11.4-16.3-11.4c-5,0-8.6,2.1-9.4,5.3  c-0.8,3.6,2,9.3,12.7,14.8c14,6.9,21.1,16.4,19,25.4c-1.9,8.1-10.6,13.5-21.8,13.5c-3.8,0-6.7-0.5-9.5-1.6l-1.4-0.6  c-2-0.9-5.1-2.3-6-1.6c-0.4,0.3-0.7,1.3-0.6,2.7L1224.4,378.4L1224.4,378.4z M1225.7,371c2,0,4.3,1,6.6,2.1l1.3,0.6  c2.4,1,4.9,1.4,8.3,1.4c9.7,0,17.3-4.5,18.9-11.2c1.8-7.6-4.7-15.9-17.4-22.1c-10.4-5.3-15.7-12.1-14.3-18.1  c1.1-4.6,6-7.6,12.3-7.6c8.6,0,14.6,3.9,18.7,12.2h0.5V319c0,0-0.4,0.4-0.7,0.5c-2.4,1.5-5.7-0.1-9-1.6l-1.2-0.5  c-2.4-1-5.1-1.6-8.3-1.6c-8,0-15.3,5.1-16.9,11.8c-1.6,6.9,3,13.4,12.4,18c18,8.1,17.5,17.7,16.9,20.4c-1.1,5.2-6,8.8-12,8.8  c-8.7,0-14.7-3.8-18.9-11.9h-0.5l0.2,9.2c0,0,0.4-0.4,0.7-0.6C1224,371.1,1224.8,370.9,1225.7,371L1225.7,371z"></path>	<path fill="#FFA23F" d="M1318.1,314.3c17.3,0,31.5,14,31.5,31.3c0,17.3-14.2,31.3-31.5,31.3c-17.3,0-31.5-14-31.5-31.3  C1286.5,328.3,1300.6,314.3,1318.1,314.3z M1317.8,373.8c12.6,0,22.7-10.9,22.7-28.2c0-17.3-10.1-28.1-22.7-28.1  s-22.7,10.9-22.7,28.1C1295.1,362.8,1305.3,373.8,1317.8,373.8z"></path>	<path fill="#FFA23F" d="M1318.1,378.4c-18.2,0-33.1-14.7-33.1-32.8c0-18.1,14.8-32.8,33.1-32.8c18.3,0,33.1,14.7,33.1,32.8  C1351.1,363.8,1336.3,378.4,1318.1,378.4z M1318.1,315.8c-16.6,0-30,13.4-30,29.8c0,16.4,13.5,29.8,30,29.8c16.6,0,30-13.4,30-29.8  C1348.1,329.2,1334.6,315.8,1318.1,315.8z M1317.8,375.4c-14,0-24.2-12.5-24.2-29.7c0-17.2,10.2-29.6,24.2-29.6  c14,0,24.2,12.4,24.2,29.6C1342,362.8,1331.8,375.4,1317.8,375.4z M1317.8,319c-12.5,0-21.3,10.9-21.3,26.7  c0,15.7,8.9,26.7,21.3,26.7c12.3,0,21.3-11.2,21.3-26.7C1339.1,330.2,1330.3,319,1317.8,319z"></path>	<path fill="#FFA23F" d="M1386.7,375.5h-13.1v-1.6h2.2c2.4,0,3.5-0.7,4.6-2.1c0.8-1,1.1-3.1,1.1-6.8v-38.7c0-3.6-0.4-5.8-1.1-6.8  c-1.2-1.5-2.2-2.2-4.7-2.2h-2.1v-1.5h17.5v55.5h31.1v4.3H1386.7L1386.7,375.5z"></path>	<path fill="#FFA23F" d="M1423.7,377h-51.6v-4.6h3.7c1.9,0,2.6-0.5,3.4-1.6c0.2-0.3,0.8-1.5,0.8-5.9v-38.7c0-4.5-0.7-5.7-0.8-5.9  c-0.9-1.1-1.5-1.6-3.5-1.6h-3.6v-4.5h20.5v55.5h31.1L1423.7,377L1423.7,377z M1380.3,374h40.4v-1.3h-31.1v-55.5h-9.3  c0.4,0.4,0.9,0.8,1.3,1.3c1,1.3,1.5,3.9,1.5,7.7V365c0,4.2-0.4,6.5-1.5,7.7C1381.2,373.2,1380.8,373.7,1380.3,374z"></path>	<path fill="#FFA23F" d="M1492.4,315.8h13v1.5h-2.1c-2.5,0-3.5,0.8-4.7,2.2c-0.7,1-1.1,3.1-1.1,6.8v29.3c0,7.1-0.4,21.5-24.2,21.5  c-23.8,0-23.5-21.5-23.5-21.5v-29.3c0-3.6-0.4-5.8-1.1-6.8c-1.2-1.5-2.2-2.2-4.7-2.2h-2.1v-1.5h17.7v39.8  c-0.1,16.1,9.1,17.5,14,17.5c20.2,0,18.9-14.5,18.9-17.5v-39.8H1492.4z"></path>	<path fill="#FFA23F" d="M1473.4,378.6c-8.3,0-14.7-2.4-19.1-7c-6.3-6.7-5.9-15.7-5.9-16.1v-29.2c0-4.5-0.7-5.7-0.8-5.9  c-0.9-1.1-1.5-1.6-3.5-1.6h-3.6v-4.5h20.7v41.3c-0.1,10.7,4,16,12.4,16c6.4,0,11.1-1.5,14-4.4c3.6-3.7,3.5-8.8,3.4-10.9v-0.5v-41.3  h16.1v4.5h-3.6c-1.9,0-2.6,0.5-3.6,1.7c-0.1,0.1-0.8,1.3-0.8,5.8v29.3C1499,362,1499,378.7,1473.4,378.6L1473.4,378.6z   M1448.7,317.3c0.4,0.4,0.8,0.8,1.3,1.3c1,1.3,1.5,3.9,1.5,7.7v29.3c0,0-0.4,8.2,5.1,14c3.8,4,9.5,6,16.9,6  c22.7,0,22.7-13.5,22.7-19.9v-29.3c0-3.9,0.5-6.3,1.4-7.6c0.4-0.5,0.9-1,1.3-1.4h-4.9v38.9c0,2.4,0.2,8.5-4.4,13.1  c-3.4,3.5-8.9,5.3-16.1,5.3c-10.1,0-15.5-6.5-15.5-18.9v-38.3L1448.7,317.3L1448.7,317.3z"></path>	<path fill="#FFA23F" d="M1586.3,315.8v3.9h-23.6V365c0,3.6,0.4,5.8,1.1,6.8c1.1,1.5,2.2,2.1,4.6,2.1h2.2v1.6h-25.6v-1.6h2.2  c2.4,0,3.5-0.7,4.6-2.1c0.8-1,1.1-3.1,1.1-6.8v-45.3h-23.6v-3.9H1586.3z"></path>	<path fill="#FFA23F" d="M1572.2,377h-28.6v-4.6h3.7c1.9,0,2.6-0.5,3.5-1.6c0.2-0.3,0.8-1.5,0.8-5.9v-43.8H1528v-6.9h59.8v6.9h-23.6  V365c0,4.4,0.5,5.5,0.8,5.8c0.8,1.1,1.5,1.6,3.4,1.6h3.7L1572.2,377L1572.2,377z M1551.9,374h12.1c-0.4-0.4-0.9-0.8-1.3-1.3  c-1-1.2-1.4-3.5-1.4-7.7v-46.8h23.6v-1H1531v1h23.6V365c0,4.2-0.4,6.5-1.4,7.7C1552.7,373.2,1552.3,373.7,1551.9,374L1551.9,374z"></path>	<path fill="#FFA23F" d="M1635.9,317.3h-2.2c-2.4,0-3.5,0.8-4.6,2.2c-0.8,1-1.1,3.1-1.1,6.8v38.7c-0.1,3.6,0.4,5.8,1,6.8  c1.2,1.5,2.2,2.1,4.7,2.1h2.1v1.6h-25.6V374h2.2c2.4,0,3.5-0.7,4.6-2.1c0.8-1,1.1-3.1,1.1-6.8v-38.7c0-3.6-0.4-5.8-1.1-6.8  c-1.2-1.5-2.2-2.2-4.7-2.2h-2.1v-1.5h25.6V317.3z"></path>	<path fill="#FFA23F" d="M1637.3,377h-28.6v-4.6h3.7c1.9,0,2.6-0.5,3.4-1.6c0.2-0.3,0.8-1.5,0.8-5.9v-38.7c0-4.5-0.7-5.7-0.8-5.9  c-0.9-1.1-1.5-1.6-3.5-1.6h-3.6v-4.5h28.6v4.5h-3.7c-1.9,0-2.5,0.5-3.4,1.6c-0.2,0.3-0.8,1.5-0.8,5.9V365c-0.1,4.5,0.6,5.7,0.7,5.9  c0.8,1,1.4,1.5,3.5,1.5h3.6L1637.3,377L1637.3,377z M1617,374h12.1c-0.5-0.4-0.8-0.8-1.3-1.3c-1-1.4-1.5-3.9-1.5-7.7v-38.7  c0.1-4.2,0.5-6.5,1.5-7.7c0.4-0.5,0.8-0.9,1.2-1.3H1617c0.4,0.4,0.9,0.8,1.3,1.3c1,1.3,1.5,3.9,1.5,7.7V365c0,4.2-0.4,6.5-1.5,7.7  C1617.8,373.2,1617.4,373.6,1617,374L1617,374z"></path>	<path fill="#FFA23F" d="M1691.4,314.3c17.3,0,31.5,14,31.5,31.3c0,17.3-14.2,31.3-31.5,31.3c-17.4,0-31.5-14-31.5-31.3  C1659.9,328.3,1673.9,314.3,1691.4,314.3z M1691.2,373.8c12.6,0,22.7-10.9,22.7-28.2c0-17.3-10.2-28.1-22.7-28.1  c-12.6,0-22.7,10.9-22.7,28.1C1668.4,362.8,1678.6,373.8,1691.2,373.8z"></path>	<path fill="#FFA23F" d="M1691.4,378.4c-18.2,0-33.1-14.7-33.1-32.8c0-18.1,14.8-32.8,33.1-32.8s33.1,14.7,33.1,32.8  C1724.5,363.8,1709.7,378.4,1691.4,378.4z M1691.4,315.8c-16.6,0-30,13.4-30,29.8c0,16.4,13.5,29.8,30,29.8s30-13.4,30-29.8  C1721.5,329.2,1708,315.8,1691.4,315.8z M1691.2,375.4c-14,0-24.2-12.5-24.2-29.7c0-17.2,10.2-29.6,24.2-29.6  c14,0,24.2,12.4,24.2,29.6C1715.4,362.8,1705.2,375.4,1691.2,375.4z M1691.2,319c-12.5,0-21.3,10.9-21.3,26.7  c0,15.7,8.9,26.7,21.3,26.7c12.3,0,21.3-11.2,21.3-26.7C1712.4,330.2,1703.7,319,1691.2,319z"></path>	<path fill="#FFA23F" d="M1798.1,361.4v-35.1c0-3.6-0.4-5.8-1.1-6.8c-1.2-1.5-2.2-2.2-4.7-2.2h-2.1v-1.5h13v59.8h-5.1l-38.1-54.6  v44.1c-0.1,3.6,0.2,5.8,1,6.8c1.2,1.5,2.2,2.1,4.7,2.1h2.1v1.6h-21V374h2.2c2.4,0,3.5-0.7,4.6-2.1c0.8-1,1.1-3.1,1.1-6.8v-38.7  c0-3.6-0.4-5.8-1.1-6.8c-1.2-1.5-2.2-2.2-4.7-2.2h-2.1v-1.5h18.4L1798.1,361.4L1798.1,361.4z"></path>	<path fill="#FFA23F" d="M1804.7,377h-7.3l-35.8-51.3V365c-0.1,4.4,0.4,5.5,0.7,5.8c0.9,1.1,1.5,1.6,3.6,1.6h3.6v4.6h-23.9v-4.6h3.7  c1.9,0,2.6-0.5,3.4-1.6c0.2-0.3,0.8-1.5,0.8-5.9v-38.7c0-4.5-0.7-5.7-0.9-5.9c-0.9-1.1-1.5-1.6-3.5-1.6h-3.6v-4.5h20.7l30.6,42.4  v-30.4c0-4.5-0.7-5.7-0.8-5.9c-0.9-1.1-1.5-1.6-3.5-1.6h-3.6v-4.5h16.1v62.7L1804.7,377z M1798.8,374h2.8v-56.7h-4.8  c0.4,0.4,0.8,0.8,1.3,1.3c1,1.4,1.5,3.9,1.5,7.7V366l-35.1-48.7h-5.3L1798.8,374z M1753.5,374h7.5c-0.5-0.4-0.9-0.8-1.3-1.3  c-1-1.3-1.5-3.6-1.5-7.7v-47.7h-4.8c0.4,0.4,0.9,0.8,1.3,1.3c1,1.3,1.5,3.9,1.5,7.7V365c0,4.2-0.4,6.5-1.5,7.7  C1754.4,373.2,1754,373.7,1753.5,374z"></path>	<path fill="#FFA23F" d="M1847.6,314.3c3.5,0,6.4,0.6,8.9,1.7c4.6,2.1,10.1,5.5,10.1-1.7h1.5v15.4h-2.9c-3.9-8.5-9.3-12.2-17.7-12.2  c-12.6,0-17.8,12.5,2.5,22.9c29.7,14.6,19.6,36.1-2.1,36.1c-3.7,0-6.4-0.5-8.9-1.5c-4.7-2.1-10.3-5.3-10.1,1.9h-1.6l-0.2-15.4h2.9  c4,8.4,9.7,11.9,18,11.9c11.5,0,19-15.4-5.5-26.4c-23.9-11.5-12.4-32.6,5-32.6L1847.6,314.3z"></path>	<path fill="#FFA23F" d="M1830.6,378.4h-4.6l-0.3-18.4h5.4l0.4,0.8c3.7,7.7,8.7,11.1,16.6,11.1c4.5,0,8.3-2.7,9.1-6.5  c1.3-5.9-4.4-12.3-15.2-17.1c-10.7-5.2-16-13.2-14.1-21.4c1.9-8.2,10.2-14.1,19.8-14.1c3.6,0,6.8,0.6,9.5,1.8l1.3,0.6  c2.1,1,5.1,2.4,6.1,1.8c0.5-0.3,0.7-1.3,0.7-2.7v-1.5h4.5v18.4h-5.4l-0.4-0.9c-3.6-8-8.5-11.4-16.3-11.4c-5,0-8.6,2.1-9.4,5.3  c-0.8,3.6,2,9.3,12.7,14.8c14,6.9,21.1,16.4,19,25.4c-1.9,8.1-10.6,13.5-21.8,13.5c-3.8,0-6.7-0.5-9.5-1.6l-1.4-0.6  c-2-0.9-5.1-2.3-6-1.6c-0.4,0.3-0.7,1.3-0.6,2.7L1830.6,378.4L1830.6,378.4z M1831.9,371c2,0,4.3,1,6.6,2.1l1.3,0.6  c2.4,1,4.9,1.4,8.3,1.4c9.7,0,17.3-4.5,18.9-11.2c1.8-7.6-4.7-15.9-17.4-22.1c-10.4-5.3-15.7-12.1-14.3-18.1  c1.1-4.6,6-7.6,12.3-7.6c8.6,0,14.6,3.9,18.7,12.2h0.5V319c0,0-0.4,0.4-0.7,0.5c-2.4,1.5-5.7-0.1-9-1.6l-1.2-0.5  c-2.4-1-5.1-1.6-8.3-1.6c-8,0-15.3,5.1-16.9,11.8c-1.6,6.9,3,13.4,12.4,18c18,8.1,17.5,17.7,16.9,20.4c-1.1,5.2-6,8.8-12,8.8  c-8.7,0-14.7-3.8-18.9-11.9h-0.5l0.2,9.2c0,0,0.4-0.4,0.7-0.6C1830.2,371.1,1830.9,370.9,1831.9,371L1831.9,371z"></path>	<path fill="#FFA23F" d="M179.3,74.9c0.9-0.4,1.9-0.9,2.9-1.7C181.3,73.8,180.3,74.3,179.3,74.9z"></path>	<path fill="#FFA23F" d="M205.9,62.5c-1.1,0.5-1.9,0.8-2.9,1.3c-0.3,0.1-0.6,0.3-0.9,0.4c-0.2,0.1-0.5,0.2-0.8,0.3c0,0-0.1,0-0.1,0  h0c-0.1-0.1-0.2-0.1-0.2-0.2l0,0c0.1,0,0.2-0.1,0.3-0.1c0.2-0.1,0.4-0.2,0.6-0.3c0.3-0.1,0.6-0.3,0.9-0.4h0c1.2-0.5,2-0.8,3.2-1.3  C206,62.2,206.1,62.4,205.9,62.5z"></path>	<path fill="#FFA23F" d="M179.3,74.9c0.9-0.4,1.9-0.9,2.9-1.7C181.3,73.8,180.3,74.3,179.3,74.9z M206.8,62l-0.5-0.7l-0.7,0.3  c-1.3,0.5-2.1,0.9-3.3,1.4c-0.2,0.1-0.5,0.2-0.8,0.4c-0.2,0.1-0.4,0.2-0.6,0.2c-0.1,0-0.1,0.1-0.2,0.1c0,0.1,0,0.2,0,0.3l0,0.3  l0.2,0.2h0l0,0c0.1,0.1,0.1,0.1,0.2,0.2h0c0.2,0.2,0.5,0.4,0.8,0.5c0.4-0.2,0.7-0.3,1-0.4c0.4-0.2,0.7-0.3,1.1-0.5c0,0,0,0,0,0  c0.7-0.3,1.4-0.6,2.2-1l0.8-0.5L206.8,62z"></path>	<path fill-rule="evenodd" clip-rule="evenodd" fill="#FFA23F" d="M207.1,62.7l-0.8,0.5c-0.8,0.4-1.5,0.7-2.2,1c0,0,0,0,0,0  c-0.3,0.2-0.7,0.3-1.1,0.5c-0.3-0.1-0.6-0.3-0.9-0.5c-0.1-0.1-0.2-0.1-0.3-0.2c-0.1-0.1-0.2-0.2-0.3-0.2c0,0,0-0.2,0-0.5  c0.3-0.1,0.6-0.2,0.8-0.4c1.2-0.5,2.1-0.9,3.3-1.4l0.7-0.3l0.5,0.7L207.1,62.7z"></path>	<path fill="#FFA23F" d="M203,63.8L203,63.8L203,63.8c-0.1-0.1-0.2-0.1-0.3-0.2c-0.2-0.1-0.3-0.2-0.5-0.3c0-0.1,0-0.3,0-0.4  c-0.2,0.1-0.5,0.2-0.8,0.4c-0.2,0.1-0.4,0.2-0.6,0.2c-0.1,0-0.1,0.1-0.2,0.1c0,0.1,0,0.2,0,0.3l0,0.3l0.2,0.2h0l0,0  c0.1,0.1,0.1,0.1,0.2,0.2h0c0.2,0.2,0.5,0.4,0.8,0.5c0.4-0.2,0.7-0.3,1-0.4c0.4-0.2,0.7-0.3,1.1-0.5c0,0,0,0,0,0  C203.7,64.1,203.3,63.9,203,63.8L203,63.8z"></path>	<path fill="#FFA23F" d="M422.3,73.2c1,0.8,2,1.3,2.9,1.7C424.3,74.3,423.3,73.8,422.3,73.2z"></path>	<path fill-rule="evenodd" clip-rule="evenodd" fill="#FFA23F" d="M457,109.6c-0.2,0.5-0.4,1-0.8,1.6c-0.5,0.7-1.2,1.6-2.2,2.4  c0-0.3,0-0.5,0-0.7c0-0.9,0.1-1.7,0.1-2.6c0-0.5,0-1.1,0.1-1.6c0-0.5,0-1,0.1-1.5c0.1,0.1,0.2,0.1,0.3,0.2c0.2,0.2,0.5,0.3,0.6,0.5  c0.3,0.2,0.5,0.4,0.7,0.5h0c0.1,0.1,0.1,0.1,0.2,0.2c0.1,0.1,0.1,0.1,0.2,0.2C456.7,109.1,456.9,109.4,457,109.6z"></path>	<path fill="#FFA23F" d="M402.8,64c-0.1,0.1-0.2,0.1-0.3,0.2c-0.3-0.2-0.6-0.3-0.9-0.4c0.1,0,0.2-0.1,0.3-0.1  C402.2,63.7,402.5,63.9,402.8,64z"></path>	<path fill="#FFA23F" d="M422.3,73.2c1,0.8,2,1.3,2.9,1.7C424.3,74.3,423.3,73.8,422.3,73.2z M401.9,63.6c-0.1,0-0.2,0.1-0.3,0.1h0  c-0.3,0.2-0.6,0.3-1.1,0.4c0.3,0.2,0.7,0.3,1.1,0.5c0.3-0.1,0.6-0.3,0.9-0.5c0.1-0.1,0.2-0.1,0.3-0.2  C402.5,63.9,402.2,63.7,401.9,63.6z"></path>	<path fill-rule="evenodd" clip-rule="evenodd" fill="#FFA23F" d="M402.8,64c-0.1,0.1-0.2,0.1-0.3,0.2c-0.3,0.2-0.6,0.3-0.9,0.5  c-0.4-0.2-0.7-0.3-1.1-0.5c0.4-0.1,0.7-0.3,1.1-0.4h0c0.1,0,0.2-0.1,0.3-0.1C402.2,63.7,402.5,63.9,402.8,64z"></path>	<path fill="#FFA23F" d="M401.9,63.6c-0.1,0-0.2,0.1-0.3,0.1h0c-0.3,0.2-0.6,0.3-1.1,0.4c0.3,0.2,0.7,0.3,1.1,0.5  c0.3-0.1,0.6-0.3,0.9-0.5c0.1-0.1,0.2-0.1,0.3-0.2C402.5,63.9,402.2,63.7,401.9,63.6z"></path>	<path fill="#FFA23F" d="M148.9,158.2l-0.8,1c-0.1,0.2-1.6,2-3.9,4.4c-0.6,0.6-1.3,1.3-2,2c-3.5,3.3-8.2,7.2-13.2,9.6  c-5.6,2.6-10.3,3.6-13.9,3.6c-5.1,0-8.2-1.8-9.6-3.3l-0.2-0.2v-0.3c0-0.4,0.5-9,16.2-15.3c6.9-2.8,14.4-2.9,19.7-2.5  c0.8,0.1,1.6,0.1,2.2,0.2c2.5,0.3,4.1,0.6,4.3,0.7L148.9,158.2z"></path>	<path fill="#FFA23F" d="M150.5,115.7c-0.9-0.6-1.6-1.3-2.2-1.9c-1.4-1.5-2.2-3-2.5-4.1l-0.1-0.3l0.2-0.3c0.1-0.1,0.6-1.1,2.1-2.3  c0.6-0.4,1.3-0.9,2.1-1.4C150.2,108.6,150.4,112,150.5,115.7z"></path>	<path fill="#FFA23F" d="M152.6,143.1L152.6,143.1c-0.7,0.3-1.4,0.6-2.1,0.9c-2.3,0.9-4.7,1.7-7.1,2.1c-0.4,0.1-0.9,0.2-1.3,0.2  c-0.8,0.1-1.5,0.2-2.2,0.3c-1.6,0.2-3.1,0.3-4.4,0.3c-9.1,0-13.7-3.8-14.9-6.2l-0.1-0.3l0.1-0.3c0.1-0.3,2.5-8.1,17.9-10.7  c0.5-0.1,1-0.2,1.5-0.2c0.2,0,0.5-0.1,0.7-0.1c2.9-0.3,5.8-0.3,8.6,0c0.7,0.1,1.5,0.2,2.2,0.3c0.1,0.6,0.1,1.1,0.1,1.7  c0.1,1,0.2,2,0.2,3c0.1,0.7,0.1,1.4,0.2,2.1c0,0.4,0.1,0.8,0.1,1.3C152.2,139.3,152.4,141.2,152.6,143.1z"></path>	<path fill="#FFA23F" d="M182.2,73.2c-1,0.5-1.9,1.1-2.9,1.7c-1.2,0.5-2.3,0.7-3.1,0.7h-0.4l-0.2-0.2c-0.3-0.3-6.4-6.3-0.7-22.2  c4.3-12,15.7-20.3,16.2-20.6l1-0.7l0.2,1.3c0.1,0.6,2.4,14.3-0.8,24.8C189.1,66.1,185.5,70.7,182.2,73.2z"></path>	<path fill="#FFA23F" d="M127.4,296.6c-0.2-0.3-5.8-6.9,1.3-22.3c5.4-11.6,17.5-18.8,18-19.1l1.1-0.6l0.1,1.3c0,0.6,1.1,14.5-3,24.8  c-5.2,13-12.7,16.3-16.4,16.3c-0.2,0-0.4,0-0.6,0l-0.3,0L127.4,296.6z"></path>	<path fill="#FFA23F" d="M137.2,100c-2.1-2.9-4.4-8.5-3.3-18.7c0.6-5.5,2.6-10.6,4.7-14.7c0.4-0.7,0.7-1.4,1.1-2  c2.5-4.3,4.8-7,5-7.2l0.8-1l0.5,1.2c0.2,0.5,4.1,9.6,5,19.1c0.1,1,0.2,2,0.2,3c0,0.8,0,1.5,0,2.3c-0.1,2.9-0.5,5.4-1,7.6  c-0.6,2.5-1.4,4.5-2.3,6.2c-2.3,4.6-5.4,6.6-7.4,7l-0.3,0.1l-0.3-0.2c0,0-0.2-0.1-0.5-0.3C138.9,102.1,138,101.3,137.2,100z"></path>	<path fill="#FFA23F" d="M147.4,311.4c2.4-12.5,12.5-22.5,12.9-22.9l0.9-0.9l0.4,1.2c0.2,0.6,4.5,13.8,3,24.8  c-2,14.7-9.1,19.4-12.6,19.9l-0.3,0l-0.3-0.2C151.2,333.2,144.2,328.1,147.4,311.4z"></path>	<path fill="#FFA23F" d="M185.5,327.2c-4.2,0.8-8.3,1.5-12.4,2.3c2-7.4,5.4-12.8,5.6-13.1l0.7-1.1l0.7,1.1  C180.3,316.7,183.1,321.2,185.5,327.2z"></path>	<path fill="#FFA23F" d="M143.4,326.9c2.1,2.6,4.3,5.1,6.6,7.5c-1.3,0.3-2.7,0.6-4,0.9c-1.8-2-3.6-4-5.4-6.2  c-8.4-10.3-15.4-20.5-20.8-30.5c0,0.4,0,0.8,0,1.2l0,0.3l-0.2,0.2c-0.2,0.1-2.7,2.3-8.2,2.3c-3.5,0-8.1-0.9-14-3.6  c-11.6-5.4-18.8-17.5-19.1-18l-0.6-1.1l1.3-0.1c0.6,0,14.5-1,24.8,3.1c5.9,2.4,9.8,5.2,12.3,7.9c-6.2-13.4-11.1-27.5-14-41.2  c-3-14.3-4.5-29.5-4.4-45.3c0-6.5,0.7-13.5,2-22c1-6.5,2.7-13.4,5.1-20.9c4.1-13,10.4-25.2,18.7-36.3c4-5.4,8.2-9.9,12.3-14.3  c0.6-0.6,1.1-1.2,1.7-1.8c0.7-0.7,1.4-1.5,2.2-2.2c2.7-2.8,5.7-5.6,8.4-8c0.1-0.1,0.1-0.1,0.2-0.1c0.6-0.6,1.3-1.2,2-1.8  c0,0.6,0,1.2,0,1.9c0,0.3,0,0.5,0,0.8c0,0.4,0,0.7,0,1.1c0,0-0.1,0.1-0.1,0.1c-0.6,0.6-1.3,1.2-2,1.9c-2.8,2.6-5.7,5.6-8.3,8.4  c-0.6,0.6-1.1,1.2-1.7,1.8l-0.5,0.5l-0.2,0.2c-3.8,4.1-7.7,8.4-11.5,13.5c-8,10.9-14.1,22.8-18,35.5c-2.2,7.1-3.9,14-4.9,20.5  c-1.3,8.2-1.9,15.1-2,21.6c-0.1,15.5,1.4,30.5,4.4,44.5c3,14,8.1,28.6,14.7,42.3C125.8,302.9,133.6,314.9,143.4,326.9L143.4,326.9z  "></path>	<path fill="#FFA23F" d="M202,65.1c-0.1,0.1-0.2,0.1-0.4,0.2c-1,0.5-3.5,1.7-5.1,2.5c-0.8,0.4-2,1-3.2,1.7l-0.9,0.5  c-0.8,0.4-1.5,0.8-2.7,1.5l-2.1,1.2c-5.4,3.2-9.7,5.7-15.7,10.1c-1.8,1.3-3.7,2.7-5.6,4.2c-0.6,0.5-1.2,1-1.9,1.5  c-2.4,1.9-4.8,3.9-7.1,5.8c-0.6,0.5-1.1,1-1.7,1.5c-0.3-0.1-0.5-0.3-0.7-0.4c-0.3-0.2-0.7-0.4-1-0.6c-0.1-0.1-0.2-0.1-0.4-0.2  c-0.1,0-0.2-0.1-0.2-0.1c0,0-0.1-0.1-0.1-0.1c0.6-0.5,1.1-1,1.7-1.4c2.3-1.9,4.7-3.9,7.1-5.7c0.6-0.5,1.2-1,1.9-1.4  c2.3-1.7,4.5-3.4,6.7-4.9c3.3-2.3,6.1-4.1,8.8-5.7c0.9-0.4,1.9-0.9,2.9-1.7c1.2-0.7,2.5-1.4,3.8-2.2l2.7-1.5c1.2-0.7,2-1.1,2.8-1.5  l0.9-0.5c1.2-0.6,2.5-1.2,3.3-1.6c1.5-0.7,3.9-1.8,5-2.3c0,0.1,0,0.2,0,0.3l0,0.3l0.2,0.2h0l0,0c0.1,0.1,0.1,0.1,0.2,0.2h0  C201.4,64.7,201.7,64.9,202,65.1z"></path>	<path fill="#FFA23F" d="M505.6,329.2l-0.9,0.9c-0.4,0.4-8.7,8.8-19.6,12.1h0c-8-2.5-16-4.7-24.3-6.7c2.1-3.6,7.5-8.2,18.8-9.7  c11-1.5,24.2,2.8,24.8,3L505.6,329.2z"></path>	<path fill="#FFA23F" d="M491.8,254.2c-4.1,0-10.9-2.5-17.8-12c-6.5-8.9-9-22.6-9.1-23.2l-0.2-1.3l1.2,0.4  c0.6,0.2,14.1,4.2,22.2,14.1c10.7,13.1,6.9,20.9,6.8,21.2l-0.1,0.3l-0.3,0.1C493.7,254,492.9,254.2,491.8,254.2z"></path>	<path fill="#FFA23F" d="M484.1,140.5l-0.1,0.3c-1.3,2.5-5.8,6.2-14.9,6.2c-1.4,0-2.9-0.1-4.6-0.3c-0.7-0.1-1.4-0.2-2.2-0.3  c-0.4-0.1-0.8-0.1-1.1-0.2c-2.4-0.5-4.9-1.3-7.2-2.2c-0.7-0.3-1.4-0.6-2.1-0.9c0.2-1.9,0.4-3.8,0.5-5.6c0.1-0.6,0.1-1.3,0.2-1.9  c0.2-2.1,0.3-4.1,0.5-6h0c0.7-0.1,1.4-0.2,2.2-0.3c2.7-0.3,5.6-0.4,8.6-0.1c0.3,0,0.6,0.1,0.9,0.1c0.5,0.1,0.9,0.1,1.3,0.2  c15.5,2.6,17.9,10.4,18,10.8L484.1,140.5z"></path>	<path fill="#FFA23F" d="M537,173.4l1.2-0.5l0,1.3c0,0.6-0.5,14.7-8,25c-7.9,10.7-14.8,12-17.6,12c-0.7,0-1.2-0.1-1.3-0.1l-0.3-0.1  l-0.2-0.3c-2-2.9-3.3-11.3,6-22.7C523.8,179.4,536.5,173.6,537,173.4z"></path>	<path fill="#FFA23F" d="M539,224.7l-0.4,1.2c-0.2,0.6-4.2,14.1-14.1,22.2c-7.6,6.2-13.4,7.5-17,7.5c-2.6,0-4.1-0.7-4.2-0.8  l-0.3-0.1l-0.1-0.3c-1.2-3.3-0.4-11.8,11.6-20.5c8.9-6.5,22.6-9,23.2-9.1L539,224.7z"></path>	<path fill="#FFA23F" d="M200.9,63.5c-0.1,0-0.1,0.1-0.2,0.1c-0.1-1.6,0.1-9.4,13.2-17.6c10.8-6.8,24.9-6.2,25.5-6.2l1.3,0.1L240,41  c-0.3,0.5-7,12.7-16,19c-6.7,4.8-12.3,6.2-16.4,6.2c-2.4,0-4.3-0.5-5.6-1.2c0.4-0.2,0.7-0.3,1-0.4c0.4-0.2,0.7-0.3,1.1-0.5  c0,0,0,0,0,0c0.7-0.3,1.4-0.6,2.2-1l0.8-0.5l-0.3-0.7l-0.5-0.7l-0.7,0.3c-1.3,0.5-2.1,0.9-3.3,1.4c-0.2,0.1-0.5,0.2-0.8,0.4  C201.3,63.4,201.1,63.4,200.9,63.5z"></path>	<path fill="#FFA23F" d="M459.7,280.6c-4.1-10.2-3.1-24.2-3.1-24.8l0.1-1.3l1.1,0.6c0.5,0.3,12.7,7.5,18,19.1  c7.1,15.4,1.5,22,1.3,22.3l-0.2,0.2l-0.3,0c-0.2,0-0.4,0-0.6,0C472.3,296.9,464.9,293.6,459.7,280.6z"></path>	<path fill="#FFA23F" d="M457.1,311.4c3.2,16.6-3.8,21.7-4.1,21.9l-0.3,0.2l-0.3,0c-3.5-0.5-10.5-5.2-12.6-19.9  c-1.5-10.9,2.8-24.2,3-24.8l0.4-1.2l0.9,0.9C444.6,288.9,454.7,298.9,457.1,311.4z"></path>	<path fill="#FFA23F" d="M424.7,83v0.3c0,2.4-1.6,6.7-7.1,10.5c-1.7,1.2-3.8,2.4-6.4,3.4c-1.3,0.5-2.7,1-4.2,1.5  c-4.3,1.3-9.1,1.7-13.3,1.7c-6.2,0-11.2-0.8-11.5-0.9l-1.3-0.2l0.8-1c0.1-0.1,0.3-0.4,0.8-1c0.4-0.5,1-1.2,1.6-2  c3.3-3.8,9.9-10.2,18.2-13.2c15.9-5.7,22,0.5,22.2,0.7L424.7,83z"></path>	<path fill="#FFA23F" d="M485.2,112.4c2.1-10.8,10.5-21.9,10.8-22.4l0.8-1l0.6,1.1c0.3,0.5,6.5,13.2,4.8,25.8  c-2.3,16.7-10.6,19.3-11,19.4l-0.3,0.1l-0.3-0.1C487.5,133.6,482.4,126.9,485.2,112.4z"></path>	<path fill="#FFA23F" d="M317.3,393.8c-0.4,0.3-0.8,0.5-1.2,0.8c0,0,0-0.1,0-0.1l0.1-0.3l0.3-0.1C316.7,393.9,317,393.8,317.3,393.8  z"></path>	<path fill="#FFA23F" d="M425.2,74.9c-1-0.6-1.9-1.2-2.9-1.7c-3.3-2.5-6.9-7.1-9.3-15.3c-3.1-10.5-0.9-24.3-0.8-24.8l0.2-1.3l1,0.7  c0.5,0.3,11.9,8.6,16.2,20.6c5.7,15.9-0.5,22-0.7,22.2l-0.2,0.2h-0.3l-0.1,0C427.5,75.6,426.4,75.4,425.2,74.9z"></path>	<path fill="#FFA23F" d="M499.2,175.2l-0.2,0.2c-1.3,1.5-4.5,3.3-9.6,3.3c-3.7,0-8.3-0.9-13.9-3.6c-5.1-2.4-9.9-6.3-13.4-9.7  c-0.7-0.7-1.4-1.4-2-2c-2.3-2.3-3.7-4.1-3.8-4.2l-0.8-1l1.3-0.3c0.2,0,1.7-0.4,4.1-0.7c0.7-0.1,1.4-0.2,2.3-0.2  c5.2-0.4,12.9-0.3,19.8,2.5c15.7,6.3,16.1,14.9,16.2,15.3L499.2,175.2L499.2,175.2z"></path>	<path fill="#FFA23F" d="M496.7,213.8c-4.2,0-10.1-1.7-17.1-7.5c-8.5-7-14.4-19.7-14.6-20.2l-0.5-1.2l1.3,0c0.6,0,14.7,0.5,25,8  c13.6,10,12,18.5,11.9,18.8l-0.1,0.3l-0.3,0.2C501.3,213.1,499.3,213.8,496.7,213.8z"></path>	<path fill="#FFA23F" d="M507,148c4.7-10,15.5-18.8,15.9-19.1l1-0.8l0.3,1.3c0.1,0.6,3.2,14.4-1.6,26.2  c-6.3,15.7-14.9,16.1-15.3,16.2H507l-0.2-0.2C504.1,169.2,500.7,161.4,507,148z"></path>	<path fill="#FFA23F" d="M425.8,316.4l-0.7-1.1l-0.7,1.1c-0.2,0.3-2.9,4.7-5.3,10.5c4.2,0.7,8.2,1.5,12.2,2.3  C429.3,322,426,316.7,425.8,316.4z M425.8,316.4l-0.7-1.1l-0.7,1.1c-0.2,0.3-2.9,4.7-5.3,10.5c4.2,0.7,8.2,1.5,12.2,2.3  C429.3,322,426,316.7,425.8,316.4z M425.8,316.4l-0.7-1.1l-0.7,1.1c-0.2,0.3-2.9,4.7-5.3,10.5c4.2,0.7,8.2,1.5,12.2,2.3  C429.3,322,426,316.7,425.8,316.4z M425.8,316.4l-0.7-1.1l-0.7,1.1c-0.2,0.3-2.9,4.7-5.3,10.5c4.2,0.7,8.2,1.5,12.2,2.3  C429.3,322,426,316.7,425.8,316.4z M449.6,92.6c-2.3-1.9-4.7-3.9-7.1-5.7c-0.6-0.5-1.3-1-1.9-1.5c-2.2-1.7-4.4-3.3-6.6-4.8  c-3.3-2.3-6.1-4.1-8.8-5.7c-0.9-0.4-1.9-0.9-2.9-1.7c-1.2-0.7-2.5-1.4-3.8-2.2l-2.7-1.5c-1.2-0.7-2-1.1-2.8-1.5l-0.9-0.5  c-1.2-0.6-2.4-1.2-3.3-1.6c-1.5-0.7-3.8-1.8-5-2.3c0.1-1.5-0.1-9.4-13.2-17.6c-10.8-6.8-24.9-6.2-25.5-6.2l-1.3,0.1l0.6,1.1  c0.3,0.5,7,12.7,16,19c6.8,4.8,12.3,6.2,16.4,6.2c2.4,0,4.3-0.5,5.6-1.2h0c0.1,0.1,0.2,0.1,0.4,0.2c1,0.5,3.5,1.7,5.1,2.5  c0.8,0.4,2,1,3.2,1.7l0.9,0.5c0.8,0.4,1.5,0.8,2.7,1.5l2.1,1.2c5.4,3.2,9.7,5.7,15.7,10.1c1.8,1.3,3.6,2.7,5.4,4.1  c0.7,0.5,1.3,1,2,1.5c2.4,1.9,4.8,3.9,7.2,5.8c0.6,0.5,1.1,1,1.7,1.5c0.3-0.1,0.5-0.3,0.7-0.4c0.3-0.2,0.7-0.4,1-0.6  c0.2-0.1,0.5-0.3,0.7-0.5C450.8,93.6,450.2,93.1,449.6,92.6z M402.5,64.2c-0.3,0.2-0.6,0.3-0.9,0.5c-0.4-0.2-0.7-0.3-1.1-0.5  c0.4-0.1,0.7-0.3,1.1-0.4h0c0.1,0,0.2-0.1,0.3-0.1c0.3,0.1,0.6,0.2,0.9,0.4C402.7,64.1,402.6,64.1,402.5,64.2z M525.7,279.8  c-0.6,0-14.5-1-24.8,3.1c-5.9,2.4-9.8,5.2-12.3,8c6.3-13.4,11.1-27.6,14-41.2c3-14.3,4.5-29.5,4.4-45.3c0-6.6-0.7-13.4-2-22  c-1-6.5-2.7-13.4-5.1-20.9c-4.1-13-10.4-25.2-18.7-36.3c-4-5.4-8.2-9.9-12.4-14.4c-0.6-0.6-1.2-1.2-1.8-1.8  c-0.7-0.7-1.4-1.5-2.2-2.2c-2.7-2.8-5.7-5.6-8.4-8c-0.7-0.6-1.4-1.3-2.1-1.9c0,1.2,0,2.4,0,3.7c0.1,0.1,0.2,0.2,0.3,0.2  c0.6,0.6,1.2,1.1,1.8,1.7c2.7,2.6,5.7,5.6,8.3,8.3c0.6,0.7,1.3,1.3,1.8,2l0.3,0.3l0.3,0.4c3.8,4.1,7.7,8.4,11.4,13.5  c8,10.9,14,22.8,18,35.5c2.2,7.1,3.9,14,4.9,20.5c1.3,8.2,1.9,15.1,2,21.6c0.1,15.5-1.4,30.5-4.4,44.5c-3,14-8.1,28.6-14.7,42.3  c-5.7,11.7-13.5,23.7-23.2,35.7c-2,2.5-4.1,4.9-6.3,7.2c1.3,0.3,2.6,0.6,3.9,0.9c1.7-1.9,3.4-3.8,5.1-5.8  c8.4-10.3,15.4-20.5,20.8-30.6c0,0.4,0,0.8,0,1.2l0,0.3l0.2,0.2c0.2,0.1,2.7,2.3,8.2,2.3c3.5,0,8.1-0.9,14-3.6  c11.6-5.4,18.8-17.5,19.1-18l0.6-1.1L525.7,279.8z M425.8,316.4l-0.7-1.1l-0.7,1.1c-0.2,0.3-2.9,4.7-5.3,10.5  c4.2,0.7,8.2,1.5,12.2,2.3C429.3,322,426,316.7,425.8,316.4z M425.8,316.4l-0.7-1.1l-0.7,1.1c-0.2,0.3-2.9,4.7-5.3,10.5  c4.2,0.7,8.2,1.5,12.2,2.3C429.3,322,426,316.7,425.8,316.4z M425.8,316.4l-0.7-1.1l-0.7,1.1c-0.2,0.3-2.9,4.7-5.3,10.5  c4.2,0.7,8.2,1.5,12.2,2.3C429.3,322,426,316.7,425.8,316.4z M425.8,316.4l-0.7-1.1l-0.7,1.1c-0.2,0.3-2.9,4.7-5.3,10.5  c4.2,0.7,8.2,1.5,12.2,2.3C429.3,322,426,316.7,425.8,316.4z"></path>	<path fill="#FFA23F" d="M453.4,82c0-0.8,0-1.6,0-2.4c0-1,0.1-2,0.2-3c0.9-9.4,4.8-18.4,5-18.9l0.5-1.2l0.8,1  c0.2,0.2,2.5,2.9,4.9,7.1c0.3,0.6,0.6,1.2,1,1.8c2.2,4.1,4.3,9.4,4.9,15c1.1,10.4-1.4,16-3.5,18.9c-0.9,1.3-1.8,2-2.3,2.3  c-0.2,0.1-0.3,0.2-0.3,0.2l-0.3,0.2l-0.3-0.1c-2-0.5-5.2-2.6-7.6-7.3c-0.8-1.7-1.6-3.7-2.1-6C453.9,87.3,453.6,84.8,453.4,82z"></path>	<path fill="#FFA23F" d="M193.4,97.3c-2.5-1-4.5-2.1-6.2-3.2c-5.7-3.9-7.4-8.3-7.4-10.7V83l0.2-0.2c0.2-0.3,6.3-6.4,22.2-0.7  c8.3,3,14.8,9.4,18.2,13.2c0.7,0.8,1.2,1.5,1.6,2c0.5,0.6,0.7,1,0.8,1l0.7,1l-1.3,0.2c-0.4,0.1-5.3,0.9-11.5,0.9  c-4.2,0-9-0.4-13.3-1.7C196.1,98.3,194.7,97.8,193.4,97.3z"></path>	<path fill="#FFA23F" d="M458.6,109.1c-0.1-0.1-0.7-1.2-2.3-2.4c-0.6-0.4-1.3-0.9-2.1-1.3c0,0.6,0,1.2-0.1,1.8  c0.1,0.1,0.2,0.1,0.3,0.2c0.2,0.2,0.5,0.3,0.6,0.5c0.3,0.2,0.5,0.4,0.7,0.5h0c0.1,0.1,0.1,0.1,0.2,0.2c0.1,0.1,0.1,0.1,0.2,0.2  c0.4,0.4,0.6,0.6,0.8,0.8c-0.2,0.5-0.4,1-0.8,1.6c-0.5,0.7-1.2,1.6-2.2,2.4c0,0.7-0.1,1.4-0.1,2.1c0.9-0.6,1.6-1.2,2.2-1.9  c1.5-1.6,2.3-3.1,2.6-4.2l0.1-0.3L458.6,109.1z"></path>	<path fill="#FFA23F" d="M109.7,253.4c-0.2-0.3-3.9-8.1,6.8-21.2c8.1-9.9,21.6-13.9,22.2-14.1l1.2-0.4l-0.2,1.3  c-0.1,0.6-2.6,14.3-9.1,23.2c-6.9,9.5-13.7,12-17.8,12c-1.1,0-1.9-0.2-2.6-0.4l-0.3-0.1L109.7,253.4z"></path>	<path fill="#FFA23F" d="M113.7,193c10.3-7.5,24.4-8,25-8l1.3,0l-0.5,1.2c-0.2,0.5-6.1,13.2-14.6,20.2c-7,5.8-12.9,7.5-17.1,7.5  c-2.6,0-4.5-0.7-5.6-1.4l-0.3-0.2l-0.1-0.3C101.8,211.5,100.1,203,113.7,193z"></path>	<path fill="#FFA23F" d="M66.4,174.1l0-1.3l1.2,0.5c0.5,0.2,13.2,6.1,20.2,14.6c9.4,11.4,8,19.8,6,22.7l-0.2,0.3l-0.3,0.1  c-0.1,0-0.5,0.1-1.3,0.1c-2.8,0-9.7-1.2-17.6-12C66.9,188.8,66.4,174.7,66.4,174.1z"></path>	<path fill="#FFA23F" d="M80,248.1c-9.9-8.1-13.9-21.6-14.1-22.2l-0.4-1.2l1.3,0.2c0.6,0.1,14.3,2.6,23.2,9.1  c11.9,8.7,12.8,17.2,11.6,20.5l-0.1,0.3l-0.3,0.1c-0.1,0.1-1.6,0.8-4.2,0.8C93.4,255.7,87.6,254.3,80,248.1z"></path>	<path fill="#FFA23F" d="M102.4,115.9c-1.8-12.6,4.5-25.3,4.8-25.8l0.6-1.1l0.8,1c0.4,0.5,8.7,11.6,10.9,22.4  c2.8,14.5-2.3,21.3-5.4,22.8l-0.3,0.1l-0.3-0.1C113,135.2,104.7,132.6,102.4,115.9z"></path>	<path fill="#FFA23F" d="M82,155.5c-4.8-11.8-1.7-25.6-1.6-26.2l0.3-1.3l1,0.8c0.5,0.4,11.3,9.1,15.9,19.1  c6.2,13.4,2.9,21.2,0.2,23.5l-0.2,0.2h-0.3C96.9,171.7,88.3,171.2,82,155.5z"></path>	<path fill="#FFA23F" d="M144,335.9c-8,2-15.8,4.1-23.6,6.6h0c-11.4-3.1-20.1-11.9-20.5-12.3l-0.9-0.9l1.2-0.4  c0.6-0.2,13.8-4.5,24.8-3C136.7,327.4,142.1,332.2,144,335.9z"></path>	<path fill="#FFA23F" d="M151.4,129.5c0-0.8-0.1-1.5-0.2-2.3c-0.1-1.1-0.1-2.1-0.2-3.1c-0.2-2.9-0.3-5.7-0.5-8.4l0,0  c-0.2-3.7-0.3-7.1-0.4-10.2l0-1.3c0-0.8,0-1.5-0.1-2.3c0-0.4,0-0.9,0-1.3c0,0-0.1,0.1-0.1,0.1c-0.6,0.6-1.3,1.2-2,1.9  c0,1.4,0.1,2.8,0.1,4.2c0,0.3,0,0.7,0,1c0,0.4,0,0.7,0,1.1c0,0.7,0,1.4,0.1,2.1c0,0.5,0,1,0.1,1.5c0,0.4,0,0.8,0.1,1.3  c0.2,4.7,0.5,9.9,0.9,15.4c0,0.3,0,0.5,0.1,0.8c0,0.3,0,0.5,0.1,0.8c0.7,0.1,1.5,0.2,2.2,0.3C151.5,130.6,151.4,130,151.4,129.5z   M188.3,287.1c0.1,0.2,0.2,0.5,0.4,0.7c0.5,1,1,1.9,1.5,2.8C189.5,289.5,188.9,288.3,188.3,287.1z M185,280.3L185,280.3  c0.5,1.1,1,2.2,1.6,3.3C186,282.5,185.5,281.4,185,280.3z M151.4,129.5c0-0.8-0.1-1.5-0.2-2.3c-0.1-1.1-0.1-2.1-0.2-3.1  c-0.2-2.9-0.3-5.7-0.5-8.4l0,0c-0.2-3.7-0.3-7.1-0.4-10.2l0-1.3c0-0.8,0-1.5-0.1-2.3c0-0.4,0-0.9,0-1.3c0,0-0.1,0.1-0.1,0.1  c-0.6,0.6-1.3,1.2-2,1.9c0,1.4,0.1,2.8,0.1,4.2c0,0.3,0,0.7,0,1c0,0.4,0,0.7,0,1.1c0,0.7,0,1.4,0.1,2.1c0,0.5,0,1,0.1,1.5  c0,0.4,0,0.8,0.1,1.3c0.2,4.7,0.5,9.9,0.9,15.4c0,0.3,0,0.5,0.1,0.8c0,0.3,0,0.5,0.1,0.8c0.7,0.1,1.5,0.2,2.2,0.3  C151.5,130.6,151.4,130,151.4,129.5z M151.4,129.5c0-0.8-0.1-1.5-0.2-2.3c-0.1-1.1-0.1-2.1-0.2-3.1c-0.2-2.9-0.3-5.7-0.5-8.4l0,0  c-0.2-3.7-0.3-7.1-0.4-10.2l0-1.3c0-0.8,0-1.5-0.1-2.3c0-0.4,0-0.9,0-1.3c0,0-0.1,0.1-0.1,0.1c-0.6,0.6-1.3,1.2-2,1.9  c0,1.4,0.1,2.8,0.1,4.2c0,0.3,0,0.7,0,1c0,0.4,0,0.7,0,1.1c0,0.7,0,1.4,0.1,2.1c0,0.5,0,1,0.1,1.5c0,0.4,0,0.8,0.1,1.3  c0.2,4.7,0.5,9.9,0.9,15.4c0,0.3,0,0.5,0.1,0.8c0,0.3,0,0.5,0.1,0.8c0.7,0.1,1.5,0.2,2.2,0.3C151.5,130.6,151.4,130,151.4,129.5z   M185,280.3L185,280.3c0.5,1.1,1,2.2,1.6,3.3C186,282.5,185.5,281.4,185,280.3z M188.3,287.1c0.1,0.2,0.2,0.5,0.4,0.7  c0.5,1,1,1.9,1.5,2.8C189.5,289.5,188.9,288.3,188.3,287.1z"></path>	<path fill="#FFA23F" d="M152,137.5c0-0.4-0.1-0.9-0.1-1.3c-0.1-0.7-0.1-1.4-0.2-2.1c-0.1-1-0.2-2-0.2-3c-0.7-0.1-1.4-0.2-2.2-0.3  c0-0.3-0.1-0.6-0.1-0.8c0-0.3,0-0.6-0.1-0.8c-2.7-0.3-5.7-0.4-8.6,0c-0.2,0-0.5,0.1-0.7,0.1c-0.5,0.1-1,0.1-1.5,0.2  c0,0.3,0,0.5,0.1,0.8c0,0.3,0,0.5,0.1,0.8c0.3,4.4,0.8,9.1,1.3,14.1c0,0.3,0.1,0.5,0.1,0.8c0,0.3,0.1,0.5,0.1,0.8  c0.7-0.1,1.4-0.2,2.2-0.3c0.4-0.1,0.8-0.1,1.3-0.2c2.4-0.5,4.8-1.2,7.1-2.1c0.7-0.3,1.4-0.6,2-0.9h0  C152.4,141.2,152.2,139.3,152,137.5z M147.7,157.9c-0.2,0-1.8-0.4-4.3-0.7c-0.7-0.1-1.4-0.2-2.2-0.2c0,0.3,0.1,0.5,0.1,0.8  c0,0.3,0.1,0.5,0.1,0.8c0.2,1.6,0.4,3.2,0.6,4.9c0,0.3,0.1,0.7,0.1,1c0,0.3,0.1,0.7,0.1,1c0.7-0.7,1.4-1.3,2-2  c2.3-2.4,3.8-4.2,3.9-4.4l0.8-1L147.7,157.9z M152,137.5c0-0.4-0.1-0.9-0.1-1.3c-0.1-0.7-0.1-1.4-0.2-2.1c-0.1-1-0.2-2-0.2-3  c-0.7-0.1-1.4-0.2-2.2-0.3c0-0.3-0.1-0.6-0.1-0.8c0-0.3,0-0.6-0.1-0.8c-2.7-0.3-5.7-0.4-8.6,0c-0.2,0-0.5,0.1-0.7,0.1  c-0.5,0.1-1,0.1-1.5,0.2c0,0.3,0,0.5,0.1,0.8c0,0.3,0,0.5,0.1,0.8c0.3,4.4,0.8,9.1,1.3,14.1c0,0.3,0.1,0.5,0.1,0.8  c0,0.3,0.1,0.5,0.1,0.8c0.7-0.1,1.4-0.2,2.2-0.3c0.4-0.1,0.8-0.1,1.3-0.2c2.4-0.5,4.8-1.2,7.1-2.1c0.7-0.3,1.4-0.6,2-0.9h0  C152.4,141.2,152.2,139.3,152,137.5z M147.7,157.9c-0.2,0-1.8-0.4-4.3-0.7c-0.7-0.1-1.4-0.2-2.2-0.2c0,0.3,0.1,0.5,0.1,0.8  c0,0.3,0.1,0.5,0.1,0.8c0.2,1.6,0.4,3.2,0.6,4.9c0,0.3,0.1,0.7,0.1,1c0,0.3,0.1,0.7,0.1,1c0.7-0.7,1.4-1.3,2-2  c2.3-2.4,3.8-4.2,3.9-4.4l0.8-1L147.7,157.9z M152,137.5c0-0.4-0.1-0.9-0.1-1.3c-0.1-0.7-0.1-1.4-0.2-2.1c-0.1-1-0.2-2-0.2-3  c-0.7-0.1-1.4-0.2-2.2-0.3c0-0.3-0.1-0.6-0.1-0.8c0-0.3,0-0.6-0.1-0.8c-2.7-0.3-5.7-0.4-8.6,0c-0.2,0-0.5,0.1-0.7,0.1  c-0.5,0.1-1,0.1-1.5,0.2c0,0.3,0,0.5,0.1,0.8c0,0.3,0,0.5,0.1,0.8c0.3,4.4,0.8,9.1,1.3,14.1c0,0.3,0.1,0.5,0.1,0.8  c0,0.3,0.1,0.5,0.1,0.8c0.7-0.1,1.4-0.2,2.2-0.3c0.4-0.1,0.8-0.1,1.3-0.2c2.4-0.5,4.8-1.2,7.1-2.1c0.7-0.3,1.4-0.6,2-0.9h0  C152.4,141.2,152.2,139.3,152,137.5z M147.7,157.9c-0.2,0-1.8-0.4-4.3-0.7c-0.7-0.1-1.4-0.2-2.2-0.2c0,0.3,0.1,0.5,0.1,0.8  c0,0.3,0.1,0.5,0.1,0.8c0.2,1.6,0.4,3.2,0.6,4.9c0,0.3,0.1,0.7,0.1,1c0,0.3,0.1,0.7,0.1,1c0.7-0.7,1.4-1.3,2-2  c2.3-2.4,3.8-4.2,3.9-4.4l0.8-1L147.7,157.9z M152,137.5c0-0.4-0.1-0.9-0.1-1.3c-0.1-0.7-0.1-1.4-0.2-2.1c-0.1-1-0.2-2-0.2-3  c-0.7-0.1-1.4-0.2-2.2-0.3c0-0.3-0.1-0.6-0.1-0.8c0-0.3,0-0.6-0.1-0.8c-2.7-0.3-5.7-0.4-8.6,0c-0.2,0-0.5,0.1-0.7,0.1  c-0.5,0.1-1,0.1-1.5,0.2c0,0.3,0,0.5,0.1,0.8c0,0.3,0,0.5,0.1,0.8c0.3,4.4,0.8,9.1,1.3,14.1c0,0.3,0.1,0.5,0.1,0.8  c0,0.3,0.1,0.5,0.1,0.8c0.7-0.1,1.4-0.2,2.2-0.3c0.4-0.1,0.8-0.1,1.3-0.2c2.4-0.5,4.8-1.2,7.1-2.1c0.7-0.3,1.4-0.6,2-0.9h0  C152.4,141.2,152.2,139.3,152,137.5z M147.7,157.9c-0.2,0-1.8-0.4-4.3-0.7c-0.7-0.1-1.4-0.2-2.2-0.2c0,0.3,0.1,0.5,0.1,0.8  c0,0.3,0.1,0.5,0.1,0.8c0.2,1.6,0.4,3.2,0.6,4.9c0,0.3,0.1,0.7,0.1,1c0,0.3,0.1,0.7,0.1,1c0.7-0.7,1.4-1.3,2-2  c2.3-2.4,3.8-4.2,3.9-4.4l0.8-1L147.7,157.9z M152,137.5c0-0.4-0.1-0.9-0.1-1.3c-0.1-0.7-0.1-1.4-0.2-2.1c-0.1-1-0.2-2-0.2-3  c-0.7-0.1-1.4-0.2-2.2-0.3c0-0.3-0.1-0.6-0.1-0.8c0-0.3,0-0.6-0.1-0.8c-2.7-0.3-5.7-0.4-8.6,0c-0.2,0-0.5,0.1-0.7,0.1  c-0.5,0.1-1,0.1-1.5,0.2c0,0.3,0,0.5,0.1,0.8c0,0.3,0,0.5,0.1,0.8c0.3,4.4,0.8,9.1,1.3,14.1c0,0.3,0.1,0.5,0.1,0.8  c0,0.3,0.1,0.5,0.1,0.8c0.7-0.1,1.4-0.2,2.2-0.3c0.4-0.1,0.8-0.1,1.3-0.2c2.4-0.5,4.8-1.2,7.1-2.1c0.7-0.3,1.4-0.6,2-0.9h0  C152.4,141.2,152.2,139.3,152,137.5z M147.7,157.9c-0.2,0-1.8-0.4-4.3-0.7c-0.7-0.1-1.4-0.2-2.2-0.2c0,0.3,0.1,0.5,0.1,0.8  c0,0.3,0.1,0.5,0.1,0.8c0.2,1.6,0.4,3.2,0.6,4.9c0,0.3,0.1,0.7,0.1,1c0,0.3,0.1,0.7,0.1,1c0.7-0.7,1.4-1.3,2-2  c2.3-2.4,3.8-4.2,3.9-4.4l0.8-1L147.7,157.9z M152,137.5c0-0.4-0.1-0.9-0.1-1.3c-0.1-0.7-0.1-1.4-0.2-2.1c-0.1-1-0.2-2-0.2-3  c-0.7-0.1-1.4-0.2-2.2-0.3c0-0.3-0.1-0.6-0.1-0.8c0-0.3,0-0.6-0.1-0.8c-2.7-0.3-5.7-0.4-8.6,0c-0.2,0-0.5,0.1-0.7,0.1  c-0.5,0.1-1,0.1-1.5,0.2c0,0.3,0,0.5,0.1,0.8c0,0.3,0,0.5,0.1,0.8c0.3,4.4,0.8,9.1,1.3,14.1c0,0.3,0.1,0.5,0.1,0.8  c0,0.3,0.1,0.5,0.1,0.8c0.7-0.1,1.4-0.2,2.2-0.3c0.4-0.1,0.8-0.1,1.3-0.2c2.4-0.5,4.8-1.2,7.1-2.1c0.7-0.3,1.4-0.6,2-0.9h0  C152.4,141.2,152.2,139.3,152,137.5z M147.7,157.9c-0.2,0-1.8-0.4-4.3-0.7c-0.7-0.1-1.4-0.2-2.2-0.2c0,0.3,0.1,0.5,0.1,0.8  c0,0.3,0.1,0.5,0.1,0.8c0.2,1.6,0.4,3.2,0.6,4.9c0,0.3,0.1,0.7,0.1,1c0,0.3,0.1,0.7,0.1,1c0.7-0.7,1.4-1.3,2-2  c2.3-2.4,3.8-4.2,3.9-4.4l0.8-1L147.7,157.9z M152,137.5c0-0.4-0.1-0.9-0.1-1.3c-0.1-0.7-0.1-1.4-0.2-2.1c-0.1-1-0.2-2-0.2-3  c-0.7-0.1-1.4-0.2-2.2-0.3c0-0.3-0.1-0.6-0.1-0.8c0-0.3,0-0.6-0.1-0.8c-2.7-0.3-5.7-0.4-8.6,0c-0.2,0-0.5,0.1-0.7,0.1  c-0.5,0.1-1,0.1-1.5,0.2c0,0.3,0,0.5,0.1,0.8c0,0.3,0,0.5,0.1,0.8c0.3,4.4,0.8,9.1,1.3,14.1c0,0.3,0.1,0.5,0.1,0.8  c0,0.3,0.1,0.5,0.1,0.8c0.7-0.1,1.4-0.2,2.2-0.3c0.4-0.1,0.8-0.1,1.3-0.2c2.4-0.5,4.8-1.2,7.1-2.1c0.7-0.3,1.4-0.6,2-0.9h0  C152.4,141.2,152.2,139.3,152,137.5z M147.7,157.9c-0.2,0-1.8-0.4-4.3-0.7c-0.7-0.1-1.4-0.2-2.2-0.2c0,0.3,0.1,0.5,0.1,0.8  c0,0.3,0.1,0.5,0.1,0.8c0.2,1.6,0.4,3.2,0.6,4.9c0,0.3,0.1,0.7,0.1,1c0,0.3,0.1,0.7,0.1,1c0.7-0.7,1.4-1.3,2-2  c2.3-2.4,3.8-4.2,3.9-4.4l0.8-1L147.7,157.9z M152,137.5c0-0.4-0.1-0.9-0.1-1.3c-0.1-0.7-0.1-1.4-0.2-2.1c-0.1-1-0.2-2-0.2-3  c-0.7-0.1-1.4-0.2-2.2-0.3c0-0.3-0.1-0.6-0.1-0.8c0-0.3,0-0.6-0.1-0.8c-2.7-0.3-5.7-0.4-8.6,0c-0.2,0-0.5,0.1-0.7,0.1  c-0.5,0.1-1,0.1-1.5,0.2c0,0.3,0,0.5,0.1,0.8c0,0.3,0,0.5,0.1,0.8c0.3,4.4,0.8,9.1,1.3,14.1c0,0.3,0.1,0.5,0.1,0.8  c0,0.3,0.1,0.5,0.1,0.8c0.7-0.1,1.4-0.2,2.2-0.3c0.4-0.1,0.8-0.1,1.3-0.2c2.4-0.5,4.8-1.2,7.1-2.1c0.7-0.3,1.4-0.6,2-0.9h0  C152.4,141.2,152.2,139.3,152,137.5z M147.7,157.9c-0.2,0-1.8-0.4-4.3-0.7c-0.7-0.1-1.4-0.2-2.2-0.2c0,0.3,0.1,0.5,0.1,0.8  c0,0.3,0.1,0.5,0.1,0.8c0.2,1.6,0.4,3.2,0.6,4.9c0,0.3,0.1,0.7,0.1,1c0,0.3,0.1,0.7,0.1,1c0.7-0.7,1.4-1.3,2-2  c2.3-2.4,3.8-4.2,3.9-4.4l0.8-1L147.7,157.9z M152,137.5c0-0.4-0.1-0.9-0.1-1.3c-0.1-0.7-0.1-1.4-0.2-2.1c-0.1-1-0.2-2-0.2-3  c-0.7-0.1-1.4-0.2-2.2-0.3c0-0.3-0.1-0.6-0.1-0.8c0-0.3,0-0.6-0.1-0.8c-2.7-0.3-5.7-0.4-8.6,0c-0.2,0-0.5,0.1-0.7,0.1  c-0.5,0.1-1,0.1-1.5,0.2c0,0.3,0,0.5,0.1,0.8c0,0.3,0,0.5,0.1,0.8c0.3,4.4,0.8,9.1,1.3,14.1c0,0.3,0.1,0.5,0.1,0.8  c0,0.3,0.1,0.5,0.1,0.8c0.7-0.1,1.4-0.2,2.2-0.3c0.4-0.1,0.8-0.1,1.3-0.2c2.4-0.5,4.8-1.2,7.1-2.1c0.7-0.3,1.4-0.6,2-0.9h0  C152.4,141.2,152.2,139.3,152,137.5z M147.7,157.9c-0.2,0-1.8-0.4-4.3-0.7c-0.7-0.1-1.4-0.2-2.2-0.2c0,0.3,0.1,0.5,0.1,0.8  c0,0.3,0.1,0.5,0.1,0.8c0.2,1.6,0.4,3.2,0.6,4.9c0,0.3,0.1,0.7,0.1,1c0,0.3,0.1,0.7,0.1,1c0.7-0.7,1.4-1.3,2-2  c2.3-2.4,3.8-4.2,3.9-4.4l0.8-1L147.7,157.9z M152,137.5c0-0.4-0.1-0.9-0.1-1.3c-0.1-0.7-0.1-1.4-0.2-2.1c-0.1-1-0.2-2-0.2-3  c-0.7-0.1-1.4-0.2-2.2-0.3c0-0.3-0.1-0.6-0.1-0.8c0-0.3,0-0.6-0.1-0.8c-2.7-0.3-5.7-0.4-8.6,0c-0.2,0-0.5,0.1-0.7,0.1  c-0.5,0.1-1,0.1-1.5,0.2c0,0.3,0,0.5,0.1,0.8c0,0.3,0,0.5,0.1,0.8c0.3,4.4,0.8,9.1,1.3,14.1c0,0.3,0.1,0.5,0.1,0.8  c0,0.3,0.1,0.5,0.1,0.8c0.7-0.1,1.4-0.2,2.2-0.3c0.4-0.1,0.8-0.1,1.3-0.2c2.4-0.5,4.8-1.2,7.1-2.1c0.7-0.3,1.4-0.6,2-0.9h0  C152.4,141.2,152.2,139.3,152,137.5z M147.7,157.9c-0.2,0-1.8-0.4-4.3-0.7c-0.7-0.1-1.4-0.2-2.2-0.2c0,0.3,0.1,0.5,0.1,0.8  c0,0.3,0.1,0.5,0.1,0.8c0.2,1.6,0.4,3.2,0.6,4.9c0,0.3,0.1,0.7,0.1,1c0,0.3,0.1,0.7,0.1,1c0.7-0.7,1.4-1.3,2-2  c2.3-2.4,3.8-4.2,3.9-4.4l0.8-1L147.7,157.9z M152,137.5c0-0.4-0.1-0.9-0.1-1.3c-0.1-0.7-0.1-1.4-0.2-2.1c-0.1-1-0.2-2-0.2-3  c-0.7-0.1-1.4-0.2-2.2-0.3c0-0.3-0.1-0.6-0.1-0.8c0-0.3,0-0.6-0.1-0.8c-2.7-0.3-5.7-0.4-8.6,0c-0.2,0-0.5,0.1-0.7,0.1  c-0.5,0.1-1,0.1-1.5,0.2c0,0.3,0,0.5,0.1,0.8c0,0.3,0,0.5,0.1,0.8c0.3,4.4,0.8,9.1,1.3,14.1c0,0.3,0.1,0.5,0.1,0.8  c0,0.3,0.1,0.5,0.1,0.8c0.7-0.1,1.4-0.2,2.2-0.3c0.4-0.1,0.8-0.1,1.3-0.2c2.4-0.5,4.8-1.2,7.1-2.1c0.7-0.3,1.4-0.6,2-0.9h0  C152.4,141.2,152.2,139.3,152,137.5z M147.7,157.9c-0.2,0-1.8-0.4-4.3-0.7c-0.7-0.1-1.4-0.2-2.2-0.2c0,0.3,0.1,0.5,0.1,0.8  c0,0.3,0.1,0.5,0.1,0.8c0.2,1.6,0.4,3.2,0.6,4.9c0,0.3,0.1,0.7,0.1,1c0,0.3,0.1,0.7,0.1,1c0.7-0.7,1.4-1.3,2-2  c2.3-2.4,3.8-4.2,3.9-4.4l0.8-1L147.7,157.9z M461,157.3c-2.4,0.3-4,0.6-4.1,0.7l-1.3,0.3l0.8,1c0.1,0.2,1.6,1.9,3.8,4.2  c0.6,0.6,1.2,1.3,2,2c0-0.3,0.1-0.7,0.1-1c0-0.3,0.1-0.7,0.1-1c0.2-1.6,0.4-3.2,0.6-4.7c0-0.3,0.1-0.6,0.1-0.8  c0-0.3,0.1-0.6,0.1-0.8C462.5,157.1,461.7,157.2,461,157.3z M466.8,78.4l-0.6-7.6l-0.2-2.3l-0.2-2.2l-0.2-2.6l-0.8,0.8l-0.6,0.6  l-0.6,0.6l-8,8.7c0,0-0.1,0.1-0.3,0.3c-0.2,0.2-0.5,0.5-0.9,0.9c-0.3,0.2-0.6,0.5-0.9,0.8c-2.4,2.1-6.7,5.5-13,8.9  c-0.3,0.1-0.5,0.3-0.8,0.4c-0.3,0.2-0.6,0.3-1,0.5c-0.3,0.1-0.5,0.3-0.8,0.4c-5.6,2.8-12.4,5.4-20.5,7.1c-0.7,0.2-1.5,0.3-2.2,0.5  c-0.8,0.2-1.6,0.3-2.4,0.4C405,96,396,96.5,386,95.5c-0.3,0-0.6-0.1-1-0.1c-0.3,0-0.7-0.1-1-0.1c-3.6-0.4-7.3-1-11.1-1.8  c-41.8-8.9-65.7-35.3-65.9-35.6l-4.8-5.4l-4.8,5.4c-0.2,0.3-24.2,26.8-65.9,35.6c-3.8,0.8-7.4,1.4-11,1.8c-0.3,0-0.7,0.1-1,0.1h0  c-0.3,0-0.7,0.1-1,0.1c-9.9,1-18.7,0.6-26.5-0.6c-0.9-0.1-1.7-0.3-2.5-0.4h0c0,0,0,0,0,0c-0.7-0.1-1.5-0.3-2.2-0.4  c-8.3-1.7-15.3-4.4-20.9-7.2c-0.3-0.1-0.5-0.3-0.8-0.4c-0.3-0.2-0.6-0.3-1-0.5c-0.3-0.1-0.5-0.3-0.8-0.4  c-6.1-3.3-10.4-6.7-12.8-8.8c-0.3-0.3-0.6-0.6-0.9-0.8c-0.4-0.4-0.7-0.6-0.9-0.9c-0.2-0.2-0.4-0.4-0.5-0.5l-7.9-8.6l-0.6-0.6  l-0.6-0.6l-0.9-0.9l-0.2,2.9l-0.2,2.2l-0.2,2.4l-0.6,7.1c-0.1,0.8-0.5,7.1-0.5,18.2c0,0.6,0,1.2,0,1.8c0,0.5,0,1,0,1.5  c0,2.7,0.1,5.7,0.2,9c0,0.4,0,0.7,0,1.1c0,0.6,0,1.3,0.1,2c0,0.4,0,0.7,0,1.1c0.2,4.9,0.5,10.3,0.9,16.2c0,0.3,0,0.5,0.1,0.8  c0,0.3,0,0.5,0.1,0.8c0.3,4.4,0.8,9.1,1.3,14.1c0,0.3,0.1,0.5,0.1,0.8c0,0.3,0.1,0.5,0.1,0.8c0.7-0.1,1.4-0.2,2.2-0.3  c0.4-0.1,0.8-0.1,1.3-0.2c2.4-0.5,4.8-1.2,7.1-2.1c0.7-0.3,1.4-0.6,2-0.9h0c-0.2-1.9-0.4-3.8-0.5-5.7c0-0.4-0.1-0.9-0.1-1.3  c-0.1-0.7-0.1-1.4-0.2-2.1c-0.1-1-0.2-2-0.2-3c-0.7-0.1-1.4-0.2-2.2-0.3c0-0.3-0.1-0.6-0.1-0.8c0-0.3,0-0.6-0.1-0.8  c-0.4-5.6-0.7-10.7-0.9-15.4c0-0.4,0-0.9-0.1-1.3c0-0.5,0-1-0.1-1.5c0-0.7,0-1.4-0.1-2.1c0-0.4,0-0.7,0-1.1c0-0.4,0-0.7,0-1  c0-1.5-0.1-2.9-0.1-4.2c0.7-0.6,1.3-1.3,2-1.9c0,0,0.1-0.1,0.1-0.1c0-0.4,0-0.7,0-1.1c0-0.3,0-0.5,0-0.8c0-0.6,0-1.3,0-1.9  c0-1.7,0-3.3,0-4.8c0.2,0.2,0.5,0.3,0.7,0.5c0.3,0.2,0.5,0.3,0.8,0.5c0.5,0.3,1.1,0.7,1.6,1c0,0,0.1,0.1,0.1,0.1  c0.1,0,0.2,0.1,0.2,0.1c0.1,0.1,0.2,0.2,0.4,0.2c0.3,0.2,0.7,0.4,1,0.6c0.2,0.1,0.5,0.3,0.7,0.4c0.4,0.3,0.9,0.5,1.3,0.7  c0,0,0.1,0,0.1,0.1c1.3,0.7,2.7,1.4,4.2,2.2c0.3,0.2,0.6,0.3,1,0.5c0.6,0.3,1.2,0.5,1.8,0.8c0.4,0.2,0.8,0.4,1.2,0.5  c0.4,0.2,0.7,0.3,1.1,0.5c0.4,0.2,0.8,0.3,1.2,0.5c0.2,0.1,0.4,0.2,0.6,0.2c0.2,0.1,0.3,0.1,0.5,0.2c0.2,0.1,0.4,0.2,0.6,0.2  c0.1,0.1,0.3,0.1,0.4,0.2c0.1,0.1,0.3,0.1,0.4,0.2c0.4,0.1,0.7,0.3,1.1,0.4c0.5,0.2,1,0.4,1.5,0.5c1.8,0.6,3.7,1.2,5.6,1.7  c0.3,0.1,0.5,0.2,0.8,0.2c0.1,0,0.3,0.1,0.4,0.1c0.3,0.1,0.5,0.1,0.8,0.2c0.6,0.2,1.3,0.3,2,0.5c0.7,0.2,1.4,0.3,2,0.5  c0.7,0.2,1.4,0.3,2.1,0.4c0.7,0.1,1.4,0.3,2.1,0.4h0c0.7,0.1,1.4,0.2,2.1,0.3c0.7,0.1,1.5,0.2,2.3,0.3c0.8,0.1,1.6,0.2,2.4,0.3  c0.7,0.1,1.3,0.1,2,0.2c0.5,0,0.9,0.1,1.4,0.1h0.1c0.4,0,0.8,0.1,1.2,0.1c0.9,0.1,1.8,0.1,2.7,0.1c0.4,0,0.7,0,1.1,0  c0.5,0,1,0,1.5,0c0.6,0,1.2,0,1.8,0c1.6,0,3.3,0,4.9-0.1c0.5,0,1.1,0,1.6-0.1c6.5-0.3,13.3-1.2,20.6-2.8c13.4-2.8,25.1-7.3,35-12.2  c0.7-0.3,1.3-0.7,1.9-1c0.8-0.4,1.6-0.8,2.3-1.2c1.5-0.8,3-1.6,4.4-2.5c11.4-6.7,19.6-13.5,24.4-18c4.8,4.4,13,11.3,24.4,18  c1.4,0.8,2.9,1.7,4.4,2.5c0.8,0.4,1.5,0.8,2.3,1.2c0.6,0.3,1.3,0.7,1.9,1c9.9,4.9,21.5,9.3,35,12.2c3,0.6,6,1.2,8.9,1.6h0  c1.1,0.2,2.3,0.3,3.4,0.5c5.1,0.6,10,0.9,14.6,0.9c0.7,0,1.3,0,2,0h0.2c0.3,0,0.6,0,0.9,0h0c0.2,0,0.3,0,0.5,0c0.1,0,0.2,0,0.3,0  c0.2,0,0.4,0,0.6,0c0.1,0,0.2,0,0.3,0l0.6,0c0.3,0,0.5,0,0.8,0c1-0.1,1.9-0.1,2.9-0.2c0.4,0,0.8-0.1,1.2-0.1c0.1,0,0.2,0,0.3,0  c0.1,0,0.2,0,0.3,0c0.5,0,1-0.1,1.5-0.2c0.2,0,0.5,0,0.7-0.1c0.6-0.1,1.2-0.1,1.8-0.2c0.6-0.1,1.2-0.2,1.8-0.3  c0.6-0.1,1.3-0.2,1.9-0.3c0.2,0,0.4-0.1,0.6-0.1c0.6-0.1,1.2-0.2,1.7-0.3c0,0,0.1,0,0.1,0c0.6-0.1,1.2-0.2,1.8-0.4  c0.2,0,0.4-0.1,0.6-0.1c0.5-0.1,1.1-0.2,1.6-0.4c0.6-0.1,1.1-0.3,1.7-0.4c0.4-0.1,0.8-0.2,1.2-0.3c0.2,0,0.4-0.1,0.6-0.2  c0.4-0.1,0.8-0.2,1.2-0.3c1.1-0.3,2.1-0.6,3.2-0.9c0.7-0.2,1.3-0.4,1.9-0.6c0.5-0.2,1.1-0.4,1.6-0.6c0.6-0.2,1.3-0.5,1.9-0.7  c0.5-0.2,1.1-0.4,1.6-0.6c0.7-0.3,1.3-0.5,1.9-0.8c0.6-0.3,1.3-0.5,1.9-0.8c0.8-0.4,1.6-0.7,2.4-1.1c0,0,0,0,0,0  c0.4-0.2,0.7-0.4,1.1-0.6c0.4-0.2,0.8-0.4,1.2-0.6c0.4-0.2,0.8-0.4,1.2-0.6c0.4-0.2,0.7-0.4,1.1-0.6c0.4-0.2,0.7-0.4,1.1-0.6  c0.3-0.1,0.5-0.3,0.7-0.4c0.3-0.2,0.7-0.4,1-0.6c0.2-0.1,0.5-0.3,0.7-0.5c0.5-0.3,1.1-0.7,1.6-1c0.3-0.2,0.5-0.3,0.8-0.5  c0.2-0.2,0.5-0.3,0.7-0.5c0,1.4,0,3,0,4.6c0,1.2,0,2.4,0,3.7c0,1.6-0.1,3.2-0.1,4.9c0,0.6,0,1.2-0.1,1.8c0,0.5,0,1-0.1,1.6  c0,0.5,0,1.1-0.1,1.6c0,0.8-0.1,1.7-0.1,2.6c0,0.2,0,0.5,0,0.7c0,0.7-0.1,1.4-0.1,2.1c-0.1,1.6-0.2,3.2-0.3,4.9  c0,0.5-0.1,1-0.1,1.5c-0.1,1.8-0.2,3.6-0.4,5.4c0,0.4-0.1,0.8-0.1,1.2c0,0.2,0,0.4,0,0.7h0c-0.1,1.9-0.3,3.9-0.5,6  c-0.1,0.6-0.1,1.3-0.2,1.9c-0.2,1.8-0.3,3.7-0.5,5.6c0.7,0.3,1.4,0.6,2.1,0.9c2.3,0.9,4.8,1.7,7.2,2.2c0.4,0.1,0.8,0.1,1.1,0.2  c0.8,0.1,1.5,0.2,2.2,0.3c0-0.3,0.1-0.5,0.1-0.8c0-0.3,0-0.5,0.1-0.8c0.5-4.9,0.9-9.6,1.2-14.1c0-0.3,0-0.5,0.1-0.8  c0-0.3,0-0.6,0.1-0.8c0.4-5.9,0.7-11.4,0.9-16.3c0-0.4,0-0.8,0-1.1c0-0.7,0.1-1.3,0.1-2c0-0.4,0-0.7,0-1.1c0.1-3.1,0.2-6,0.2-8.6  c0-0.5,0-1,0-1.5c0-0.6,0-1.2,0-1.8C467.3,85.7,466.9,79.2,466.8,78.4L466.8,78.4z M147.7,157.9c-0.2,0-1.8-0.4-4.3-0.7  c-0.7-0.1-1.4-0.2-2.2-0.2c0,0.3,0.1,0.5,0.1,0.8c0,0.3,0.1,0.5,0.1,0.8c0.2,1.6,0.4,3.2,0.6,4.9c0,0.3,0.1,0.7,0.1,1  c0,0.3,0.1,0.7,0.1,1c0.7-0.7,1.4-1.3,2-2c2.3-2.4,3.8-4.2,3.9-4.4l0.8-1L147.7,157.9z M152,137.5c0-0.4-0.1-0.9-0.1-1.3  c-0.1-0.7-0.1-1.4-0.2-2.1c-0.1-1-0.2-2-0.2-3c-0.7-0.1-1.4-0.2-2.2-0.3c0-0.3-0.1-0.6-0.1-0.8c0-0.3,0-0.6-0.1-0.8  c-2.7-0.3-5.7-0.4-8.6,0c-0.2,0-0.5,0.1-0.7,0.1c-0.5,0.1-1,0.1-1.5,0.2c0,0.3,0,0.5,0.1,0.8c0,0.3,0,0.5,0.1,0.8  c0.3,4.4,0.8,9.1,1.3,14.1c0,0.3,0.1,0.5,0.1,0.8c0,0.3,0.1,0.5,0.1,0.8c0.7-0.1,1.4-0.2,2.2-0.3c0.4-0.1,0.8-0.1,1.3-0.2  c2.4-0.5,4.8-1.2,7.1-2.1c0.7-0.3,1.4-0.6,2-0.9h0C152.4,141.2,152.2,139.3,152,137.5z M147.7,157.9c-0.2,0-1.8-0.4-4.3-0.7  c-0.7-0.1-1.4-0.2-2.2-0.2c0,0.3,0.1,0.5,0.1,0.8c0,0.3,0.1,0.5,0.1,0.8c0.2,1.6,0.4,3.2,0.6,4.9c0,0.3,0.1,0.7,0.1,1  c0,0.3,0.1,0.7,0.1,1c0.7-0.7,1.4-1.3,2-2c2.3-2.4,3.8-4.2,3.9-4.4l0.8-1L147.7,157.9z M152,137.5c0-0.4-0.1-0.9-0.1-1.3  c-0.1-0.7-0.1-1.4-0.2-2.1c-0.1-1-0.2-2-0.2-3c-0.7-0.1-1.4-0.2-2.2-0.3c0-0.3-0.1-0.6-0.1-0.8c0-0.3,0-0.6-0.1-0.8  c-2.7-0.3-5.7-0.4-8.6,0c-0.2,0-0.5,0.1-0.7,0.1c-0.5,0.1-1,0.1-1.5,0.2c0,0.3,0,0.5,0.1,0.8c0,0.3,0,0.5,0.1,0.8  c0.3,4.4,0.8,9.1,1.3,14.1c0,0.3,0.1,0.5,0.1,0.8c0,0.3,0.1,0.5,0.1,0.8c0.7-0.1,1.4-0.2,2.2-0.3c0.4-0.1,0.8-0.1,1.3-0.2  c2.4-0.5,4.8-1.2,7.1-2.1c0.7-0.3,1.4-0.6,2-0.9h0C152.4,141.2,152.2,139.3,152,137.5z M147.7,157.9c-0.2,0-1.8-0.4-4.3-0.7  c-0.7-0.1-1.4-0.2-2.2-0.2c0,0.3,0.1,0.5,0.1,0.8c0,0.3,0.1,0.5,0.1,0.8c0.2,1.6,0.4,3.2,0.6,4.9c0,0.3,0.1,0.7,0.1,1  c0,0.3,0.1,0.7,0.1,1c0.7-0.7,1.4-1.3,2-2c2.3-2.4,3.8-4.2,3.9-4.4l0.8-1L147.7,157.9z M152,137.5c0-0.4-0.1-0.9-0.1-1.3  c-0.1-0.7-0.1-1.4-0.2-2.1c-0.1-1-0.2-2-0.2-3c-0.7-0.1-1.4-0.2-2.2-0.3c0-0.3-0.1-0.6-0.1-0.8c0-0.3,0-0.6-0.1-0.8  c-2.7-0.3-5.7-0.4-8.6,0c-0.2,0-0.5,0.1-0.7,0.1c-0.5,0.1-1,0.1-1.5,0.2c0,0.3,0,0.5,0.1,0.8c0,0.3,0,0.5,0.1,0.8  c0.3,4.4,0.8,9.1,1.3,14.1c0,0.3,0.1,0.5,0.1,0.8c0,0.3,0.1,0.5,0.1,0.8c0.7-0.1,1.4-0.2,2.2-0.3c0.4-0.1,0.8-0.1,1.3-0.2  c2.4-0.5,4.8-1.2,7.1-2.1c0.7-0.3,1.4-0.6,2-0.9h0C152.4,141.2,152.2,139.3,152,137.5z M147.7,157.9c-0.2,0-1.8-0.4-4.3-0.7  c-0.7-0.1-1.4-0.2-2.2-0.2c0,0.3,0.1,0.5,0.1,0.8c0,0.3,0.1,0.5,0.1,0.8c0.2,1.6,0.4,3.2,0.6,4.9c0,0.3,0.1,0.7,0.1,1  c0,0.3,0.1,0.7,0.1,1c0.7-0.7,1.4-1.3,2-2c2.3-2.4,3.8-4.2,3.9-4.4l0.8-1L147.7,157.9z M152,137.5c0-0.4-0.1-0.9-0.1-1.3  c-0.1-0.7-0.1-1.4-0.2-2.1c-0.1-1-0.2-2-0.2-3c-0.7-0.1-1.4-0.2-2.2-0.3c0-0.3-0.1-0.6-0.1-0.8c0-0.3,0-0.6-0.1-0.8  c-2.7-0.3-5.7-0.4-8.6,0c-0.2,0-0.5,0.1-0.7,0.1c-0.5,0.1-1,0.1-1.5,0.2c0,0.3,0,0.5,0.1,0.8c0,0.3,0,0.5,0.1,0.8  c0.3,4.4,0.8,9.1,1.3,14.1c0,0.3,0.1,0.5,0.1,0.8c0,0.3,0.1,0.5,0.1,0.8c0.7-0.1,1.4-0.2,2.2-0.3c0.4-0.1,0.8-0.1,1.3-0.2  c2.4-0.5,4.8-1.2,7.1-2.1c0.7-0.3,1.4-0.6,2-0.9h0C152.4,141.2,152.2,139.3,152,137.5z M147.7,157.9c-0.2,0-1.8-0.4-4.3-0.7  c-0.7-0.1-1.4-0.2-2.2-0.2c0,0.3,0.1,0.5,0.1,0.8c0,0.3,0.1,0.5,0.1,0.8c0.2,1.6,0.4,3.2,0.6,4.9c0,0.3,0.1,0.7,0.1,1  c0,0.3,0.1,0.7,0.1,1c0.7-0.7,1.4-1.3,2-2c2.3-2.4,3.8-4.2,3.9-4.4l0.8-1L147.7,157.9z M152,137.5c0-0.4-0.1-0.9-0.1-1.3  c-0.1-0.7-0.1-1.4-0.2-2.1c-0.1-1-0.2-2-0.2-3c-0.7-0.1-1.4-0.2-2.2-0.3c0-0.3-0.1-0.6-0.1-0.8c0-0.3,0-0.6-0.1-0.8  c-2.7-0.3-5.7-0.4-8.6,0c-0.2,0-0.5,0.1-0.7,0.1c-0.5,0.1-1,0.1-1.5,0.2c0,0.3,0,0.5,0.1,0.8c0,0.3,0,0.5,0.1,0.8  c0.3,4.4,0.8,9.1,1.3,14.1c0,0.3,0.1,0.5,0.1,0.8c0,0.3,0.1,0.5,0.1,0.8c0.7-0.1,1.4-0.2,2.2-0.3c0.4-0.1,0.8-0.1,1.3-0.2  c2.4-0.5,4.8-1.2,7.1-2.1c0.7-0.3,1.4-0.6,2-0.9h0C152.4,141.2,152.2,139.3,152,137.5z M147.7,157.9c-0.2,0-1.8-0.4-4.3-0.7  c-0.7-0.1-1.4-0.2-2.2-0.2c0,0.3,0.1,0.5,0.1,0.8c0,0.3,0.1,0.5,0.1,0.8c0.2,1.6,0.4,3.2,0.6,4.9c0,0.3,0.1,0.7,0.1,1  c0,0.3,0.1,0.7,0.1,1c0.7-0.7,1.4-1.3,2-2c2.3-2.4,3.8-4.2,3.9-4.4l0.8-1L147.7,157.9z M152,137.5c0-0.4-0.1-0.9-0.1-1.3  c-0.1-0.7-0.1-1.4-0.2-2.1c-0.1-1-0.2-2-0.2-3c-0.7-0.1-1.4-0.2-2.2-0.3c0-0.3-0.1-0.6-0.1-0.8c0-0.3,0-0.6-0.1-0.8  c-2.7-0.3-5.7-0.4-8.6,0c-0.2,0-0.5,0.1-0.7,0.1c-0.5,0.1-1,0.1-1.5,0.2c0,0.3,0,0.5,0.1,0.8c0,0.3,0,0.5,0.1,0.8  c0.3,4.4,0.8,9.1,1.3,14.1c0,0.3,0.1,0.5,0.1,0.8c0,0.3,0.1,0.5,0.1,0.8c0.7-0.1,1.4-0.2,2.2-0.3c0.4-0.1,0.8-0.1,1.3-0.2  c2.4-0.5,4.8-1.2,7.1-2.1c0.7-0.3,1.4-0.6,2-0.9h0C152.4,141.2,152.2,139.3,152,137.5z M147.7,157.9c-0.2,0-1.8-0.4-4.3-0.7  c-0.7-0.1-1.4-0.2-2.2-0.2c0,0.3,0.1,0.5,0.1,0.8c0,0.3,0.1,0.5,0.1,0.8c0.2,1.6,0.4,3.2,0.6,4.9c0,0.3,0.1,0.7,0.1,1  c0,0.3,0.1,0.7,0.1,1c0.7-0.7,1.4-1.3,2-2c2.3-2.4,3.8-4.2,3.9-4.4l0.8-1L147.7,157.9z M152,137.5c0-0.4-0.1-0.9-0.1-1.3  c-0.1-0.7-0.1-1.4-0.2-2.1c-0.1-1-0.2-2-0.2-3c-0.7-0.1-1.4-0.2-2.2-0.3c0-0.3-0.1-0.6-0.1-0.8c0-0.3,0-0.6-0.1-0.8  c-2.7-0.3-5.7-0.4-8.6,0c-0.2,0-0.5,0.1-0.7,0.1c-0.5,0.1-1,0.1-1.5,0.2c0,0.3,0,0.5,0.1,0.8c0,0.3,0,0.5,0.1,0.8  c0.3,4.4,0.8,9.1,1.3,14.1c0,0.3,0.1,0.5,0.1,0.8c0,0.3,0.1,0.5,0.1,0.8c0.7-0.1,1.4-0.2,2.2-0.3c0.4-0.1,0.8-0.1,1.3-0.2  c2.4-0.5,4.8-1.2,7.1-2.1c0.7-0.3,1.4-0.6,2-0.9h0C152.4,141.2,152.2,139.3,152,137.5z M147.7,157.9c-0.2,0-1.8-0.4-4.3-0.7  c-0.7-0.1-1.4-0.2-2.2-0.2c0,0.3,0.1,0.5,0.1,0.8c0,0.3,0.1,0.5,0.1,0.8c0.2,1.6,0.4,3.2,0.6,4.9c0,0.3,0.1,0.7,0.1,1  c0,0.3,0.1,0.7,0.1,1c0.7-0.7,1.4-1.3,2-2c2.3-2.4,3.8-4.2,3.9-4.4l0.8-1L147.7,157.9z M152,137.5c0-0.4-0.1-0.9-0.1-1.3  c-0.1-0.7-0.1-1.4-0.2-2.1c-0.1-1-0.2-2-0.2-3c-0.7-0.1-1.4-0.2-2.2-0.3c0-0.3-0.1-0.6-0.1-0.8c0-0.3,0-0.6-0.1-0.8  c-2.7-0.3-5.7-0.4-8.6,0c-0.2,0-0.5,0.1-0.7,0.1c-0.5,0.1-1,0.1-1.5,0.2c0,0.3,0,0.5,0.1,0.8c0,0.3,0,0.5,0.1,0.8  c0.3,4.4,0.8,9.1,1.3,14.1c0,0.3,0.1,0.5,0.1,0.8c0,0.3,0.1,0.5,0.1,0.8c0.7-0.1,1.4-0.2,2.2-0.3c0.4-0.1,0.8-0.1,1.3-0.2  c2.4-0.5,4.8-1.2,7.1-2.1c0.7-0.3,1.4-0.6,2-0.9h0C152.4,141.2,152.2,139.3,152,137.5z M147.7,157.9c-0.2,0-1.8-0.4-4.3-0.7  c-0.7-0.1-1.4-0.2-2.2-0.2c0,0.3,0.1,0.5,0.1,0.8c0,0.3,0.1,0.5,0.1,0.8c0.2,1.6,0.4,3.2,0.6,4.9c0,0.3,0.1,0.7,0.1,1  c0,0.3,0.1,0.7,0.1,1c0.7-0.7,1.4-1.3,2-2c2.3-2.4,3.8-4.2,3.9-4.4l0.8-1L147.7,157.9z M152,137.5c0-0.4-0.1-0.9-0.1-1.3  c-0.1-0.7-0.1-1.4-0.2-2.1c-0.1-1-0.2-2-0.2-3c-0.7-0.1-1.4-0.2-2.2-0.3c0-0.3-0.1-0.6-0.1-0.8c0-0.3,0-0.6-0.1-0.8  c-2.7-0.3-5.7-0.4-8.6,0c-0.2,0-0.5,0.1-0.7,0.1c-0.5,0.1-1,0.1-1.5,0.2c0,0.3,0,0.5,0.1,0.8c0,0.3,0,0.5,0.1,0.8  c0.3,4.4,0.8,9.1,1.3,14.1c0,0.3,0.1,0.5,0.1,0.8c0,0.3,0.1,0.5,0.1,0.8c0.7-0.1,1.4-0.2,2.2-0.3c0.4-0.1,0.8-0.1,1.3-0.2  c2.4-0.5,4.8-1.2,7.1-2.1c0.7-0.3,1.4-0.6,2-0.9h0C152.4,141.2,152.2,139.3,152,137.5z M147.7,157.9c-0.2,0-1.8-0.4-4.3-0.7  c-0.7-0.1-1.4-0.2-2.2-0.2c0,0.3,0.1,0.5,0.1,0.8c0,0.3,0.1,0.5,0.1,0.8c0.2,1.6,0.4,3.2,0.6,4.9c0,0.3,0.1,0.7,0.1,1  c0,0.3,0.1,0.7,0.1,1c0.7-0.7,1.4-1.3,2-2c2.3-2.4,3.8-4.2,3.9-4.4l0.8-1L147.7,157.9z M152,137.5c0-0.4-0.1-0.9-0.1-1.3  c-0.1-0.7-0.1-1.4-0.2-2.1c-0.1-1-0.2-2-0.2-3c-0.7-0.1-1.4-0.2-2.2-0.3c0-0.3-0.1-0.6-0.1-0.8c0-0.3,0-0.6-0.1-0.8  c-2.7-0.3-5.7-0.4-8.6,0c-0.2,0-0.5,0.1-0.7,0.1c-0.5,0.1-1,0.1-1.5,0.2c0,0.3,0,0.5,0.1,0.8c0,0.3,0,0.5,0.1,0.8  c0.3,4.4,0.8,9.1,1.3,14.1c0,0.3,0.1,0.5,0.1,0.8c0,0.3,0.1,0.5,0.1,0.8c0.7-0.1,1.4-0.2,2.2-0.3c0.4-0.1,0.8-0.1,1.3-0.2  c2.4-0.5,4.8-1.2,7.1-2.1c0.7-0.3,1.4-0.6,2-0.9h0C152.4,141.2,152.2,139.3,152,137.5z M147.7,157.9c-0.2,0-1.8-0.4-4.3-0.7  c-0.7-0.1-1.4-0.2-2.2-0.2c0,0.3,0.1,0.5,0.1,0.8c0,0.3,0.1,0.5,0.1,0.8c0.2,1.6,0.4,3.2,0.6,4.9c0,0.3,0.1,0.7,0.1,1  c0,0.3,0.1,0.7,0.1,1c0.7-0.7,1.4-1.3,2-2c2.3-2.4,3.8-4.2,3.9-4.4l0.8-1L147.7,157.9z M152,137.5c0-0.4-0.1-0.9-0.1-1.3  c-0.1-0.7-0.1-1.4-0.2-2.1c-0.1-1-0.2-2-0.2-3c-0.7-0.1-1.4-0.2-2.2-0.3c0-0.3-0.1-0.6-0.1-0.8c0-0.3,0-0.6-0.1-0.8  c-2.7-0.3-5.7-0.4-8.6,0c-0.2,0-0.5,0.1-0.7,0.1c-0.5,0.1-1,0.1-1.5,0.2c0,0.3,0,0.5,0.1,0.8c0,0.3,0,0.5,0.1,0.8  c0.3,4.4,0.8,9.1,1.3,14.1c0,0.3,0.1,0.5,0.1,0.8c0,0.3,0.1,0.5,0.1,0.8c0.7-0.1,1.4-0.2,2.2-0.3c0.4-0.1,0.8-0.1,1.3-0.2  c2.4-0.5,4.8-1.2,7.1-2.1c0.7-0.3,1.4-0.6,2-0.9h0C152.4,141.2,152.2,139.3,152,137.5z M147.7,157.9c-0.2,0-1.8-0.4-4.3-0.7  c-0.7-0.1-1.4-0.2-2.2-0.2c0,0.3,0.1,0.5,0.1,0.8c0,0.3,0.1,0.5,0.1,0.8c0.2,1.6,0.4,3.2,0.6,4.9c0,0.3,0.1,0.7,0.1,1  c0,0.3,0.1,0.7,0.1,1c0.7-0.7,1.4-1.3,2-2c2.3-2.4,3.8-4.2,3.9-4.4l0.8-1L147.7,157.9z"></path>	<path fill="#FFA23F" d="M222.9,338.6c-0.5,0.1-1,0.1-1.5,0.2c-0.4,0-0.7,0.1-1.1,0.1c-0.5,0.1-0.9,0.1-1.4,0.2  c-3.1,0.4-5.8,0.8-8.4,1.2c-0.4,0.1-0.9,0.1-1.3,0.2c-0.4,0.1-0.8,0.1-1.2,0.2c-0.5-0.6-1.1-1.3-1.6-2c-1.2-1.5-2.4-3.1-3.7-4.7  c-1.7-2.2-3.4-4.5-5-6.8c-0.5-0.7-0.9-1.3-1.4-2c-18.3-26.1-33.4-57.9-42.8-98.2c-5.3-22.6-8.9-43.2-11.4-61.5c0.7-0.7,1.4-1.3,2-2  c2.3-2.4,3.8-4.2,3.9-4.4l0.8-1l-1.3-0.3c-0.2,0-1.8-0.4-4.3-0.7c-0.7-0.1-1.4-0.2-2.2-0.2c-0.4-3.5-0.8-7-1.2-10.3  c0.7-0.1,1.4-0.2,2.2-0.3c0.4-0.1,0.8-0.1,1.3-0.2c2.4-0.5,4.8-1.2,7.1-2.1c0.7-0.3,1.4-0.6,2-0.9h0c0.1,0.7,0.1,1.5,0.2,2.2  c0.1,0.7,0.2,1.5,0.2,2.2v0c0.2,1.4,0.3,2.8,0.5,4.2c0.5,4.3,1,8.8,1.7,13.3c0.3,2.3,0.6,4.6,1,7c0,0.3,0.1,0.7,0.2,1  c0.1,0.7,0.2,1.5,0.3,2.3c1.4,8.9,3,18.2,5,28c0.3,1.4,0.6,2.8,0.8,4.2c0.4,1.7,0.7,3.3,1.1,5c0.1,0.7,0.3,1.3,0.4,2  c0.3,1.3,0.6,2.6,0.9,3.9c0.2,0.8,0.4,1.6,0.6,2.4c0.2,1,0.5,2.1,0.7,3.1c0.9,3.7,1.8,7.4,2.8,11c0.2,0.7,0.4,1.4,0.6,2.1  c0.7,2.6,1.5,5.2,2.2,7.8c0.2,0.8,0.5,1.6,0.7,2.4c0.1,0.2,0.1,0.4,0.2,0.6c0.1,0.3,0.2,0.6,0.3,0.8c0.2,0.6,0.4,1.3,0.6,1.9  c0.4,1.3,0.8,2.6,1.3,3.9c0.3,0.9,0.6,1.8,0.9,2.7c0.1,0.3,0.2,0.6,0.3,0.9c0.3,0.8,0.6,1.6,0.9,2.5c0.2,0.4,0.3,0.8,0.5,1.2  c0.3,0.7,0.5,1.4,0.8,2.2c0.2,0.4,0.3,0.8,0.5,1.2c0.3,0.8,0.6,1.7,1,2.5c0.2,0.6,0.5,1.3,0.7,1.9c0.6,1.6,1.3,3.1,2,4.7l0.6,1.5  c0.2,0.4,0.3,0.8,0.5,1.2c0.5,1.1,1,2.3,1.5,3.4c0.5,1.1,1,2.2,1.6,3.3c0,0,0,0.1,0.1,0.2c0.5,1.1,1.1,2.3,1.6,3.4  c0.1,0.2,0.2,0.5,0.4,0.7c0.5,1,1,1.9,1.5,2.8c0.3,0.6,0.6,1.2,1,1.9c0.3,0.5,0.5,1,0.8,1.5c0.6,1.1,1.2,2.2,1.8,3.3  c0.6,1.1,1.2,2.2,1.9,3.3c0.6,1.1,1.3,2.2,1.9,3.2c1.4,2.3,2.8,4.6,4.3,6.9c0.6,0.9,1.1,1.7,1.7,2.6c0.7,1,1.4,2,2.1,3  c0.7,1,1.4,2,2.1,3c0.4,0.6,0.9,1.2,1.3,1.8c0.8,1.1,1.6,2.2,2.4,3.2c0.4,0.5,0.8,1,1.2,1.5c1.1,1.5,2.3,2.9,3.4,4.3  c0.6,0.7,1.1,1.4,1.7,2.1c0.6,0.7,1.2,1.4,1.7,2.1c0,0,0,0.1,0.1,0.1c0.6,0.7,1.1,1.3,1.7,2C221.7,337.2,222.3,337.9,222.9,338.6z"></path>	<path fill="#FFA23F" d="M456.9,157.9l-1.3,0.3l0.8,1c0.1,0.2,1.6,1.9,3.8,4.2c0.6,0.6,1.2,1.3,2,2c-2.5,18.3-6.1,39-11.4,61.7  c-9.4,40.1-24.4,71.9-42.6,97.9c-0.5,0.7-0.9,1.3-1.4,2c-0.9,1.3-1.8,2.5-2.8,3.8c-1,1.4-2,2.7-3,4c-0.5,0.6-0.9,1.1-1.3,1.7  c-0.5,0.7-1,1.3-1.6,2c-0.5,0.7-1.1,1.3-1.6,2c-0.4-0.1-0.8-0.1-1.2-0.2c-3.4-0.5-6.6-1-9.7-1.4c-0.9-0.1-1.7-0.2-2.5-0.3  c-0.5-0.1-1-0.1-1.5-0.2c0.4-0.5,0.9-1,1.3-1.5c0.7-0.8,1.5-1.7,2.2-2.5c2.2-2.6,4.4-5.3,6.5-8c0.5-0.7,1.1-1.4,1.6-2.1  c0.7-0.9,1.4-1.9,2.1-2.8c0.5-0.7,1.1-1.4,1.6-2.2c8.5-11.9,16-24.7,22.5-38.9c0.4-0.8,0.8-1.7,1.1-2.5c0.2-0.4,0.4-0.9,0.6-1.3  c0.4-0.9,0.8-1.8,1.2-2.7c0.1-0.3,0.3-0.6,0.4-0.9c0.4-0.9,0.7-1.7,1.1-2.6c0.7-1.7,1.4-3.4,2.1-5.2c0.4-1,0.8-2.1,1.2-3.1  c0.1-0.3,0.2-0.6,0.3-0.9c0.4-1.1,0.8-2.2,1.2-3.4c0.8-2.3,1.6-4.7,2.4-7.1c0.1-0.3,0.2-0.6,0.3-0.9c0.1-0.3,0.2-0.6,0.3-0.9  c0.1-0.2,0.1-0.4,0.2-0.6c0.3-1.1,0.7-2.2,1-3.2c0.3-1,0.6-2.1,0.9-3.1c0.3-1.1,0.6-2.1,0.9-3.2c0.3-1.1,0.6-2.3,0.9-3.4  c0.2-0.9,0.5-1.8,0.7-2.7c0.4-1.4,0.7-2.7,1-4.1c0.3-1.4,0.7-2.7,1-4.1c0.3-1.2,0.5-2.3,0.8-3.5c0.8-3.5,1.6-6.9,2.3-10.3  c0.4-1.8,0.8-3.6,1.1-5.4c0.2-1.1,0.5-2.3,0.7-3.4c0.3-1.5,0.6-3,0.9-4.5c1-5.2,1.9-10.3,2.7-15.2c0.2-1.4,0.4-2.7,0.6-4  c0.2-1.1,0.4-2.2,0.5-3.3c0.6-3.9,1.1-7.7,1.6-11.3c0.1-0.4,0.1-0.8,0.2-1.2c0.2-1.4,0.4-2.7,0.5-4.1c0.2-1.3,0.3-2.7,0.5-3.9  c0.5-3.8,0.8-7.4,1.2-10.9c0.7,0.3,1.4,0.6,2.1,0.9c2.3,0.9,4.8,1.7,7.2,2.2c0.4,0.1,0.8,0.1,1.1,0.2c0.8,0.1,1.5,0.2,2.2,0.3  c-0.4,3.3-0.7,6.8-1.2,10.3c-0.8,0.1-1.6,0.1-2.3,0.2C458.6,157.5,457.1,157.9,456.9,157.9z"></path>	<path fill="#FFA23F" d="M373.4,140.7c3.4-4.1,6.2-6.2,13.2-6.2h6v-4.3h-45.7v74.7h-89.2v-74.7h-45.7v4.3h6c6.9,0,9.8,2.1,13.2,6.2  c1.9,2.6,3.1,8.9,3.1,18.9V268c0,10.1-1,16.3-3.1,18.9c-3.1,4.1-6.2,6-12.9,6h-6.2v4.6h45.7v-81.4h89.2v81.4h45.7v-4.6h-6.2  c-6.7,0-9.8-1.9-12.9-6c-2.2-2.6-3.1-8.9-3.1-18.9V159.6C370.3,149.6,371.5,143.3,373.4,140.7z"></path>	<path fill="#FFA23F" d="M258.2,159.6c0-10.1,1-16.3,3.1-18.9c3.1-4.1,6.2-6,12.9-6h6.2v-4.6h-45.7v167.3h45.7v-4.3h-6  c-6.9,0-9.8-2.2-13.2-6.2c-1.9-2.6-3.1-8.9-3.1-18.9V159.6z"></path>	<path fill="#FFA23F" d="M324.3,130.2v4.3h6c6.9,0,9.8,2.1,13.2,6.2c1.9,2.6,3.1,8.9,3.1,18.9V268c0,10.1-1,16.3-3.1,18.9  c-3.1,4.1-6.2,6-12.9,6h-6.2v4.5H370V130.2H324.3z"></path>	<path fill="#FFA23F" d="M122.8,360.1L122.8,360.1C122.8,360.1,122.7,360.1,122.8,360.1l0.4,1.7L122.8,360.1z"></path>	<path fill="#FFA23F" d="M122.8,360.1L122.8,360.1C122.8,360.1,122.7,360.1,122.8,360.1l0.4,1.7L122.8,360.1z"></path>	<path fill="#FFA23F" d="M122.8,360.1L122.8,360.1C122.8,360.1,122.7,360.1,122.8,360.1l0.4,1.7L122.8,360.1z M122.8,360.1  L122.8,360.1C122.8,360.1,122.7,360.1,122.8,360.1l0.4,1.7L122.8,360.1z M122.8,360.1L122.8,360.1  C122.8,360.1,122.7,360.1,122.8,360.1l0.4,1.7L122.8,360.1z M122.8,360.1L122.8,360.1C122.8,360.1,122.7,360.1,122.8,360.1l0.4,1.7  L122.8,360.1z M122.8,360.1L122.8,360.1C122.8,360.1,122.7,360.1,122.8,360.1l0.4,1.7L122.8,360.1z"></path>	<path fill="#FFA23F" d="M398.5,336.3c-0.8-0.1-1.7-0.3-2.5-0.4c-3.4-0.5-6.6-1-9.7-1.4c-0.4-0.1-0.8-0.1-1.1-0.2  c-0.5-0.1-1-0.1-1.4-0.2c-54-7-108.8-7-162.8,0.2c-0.5,0.1-1,0.1-1.5,0.2c-0.4,0-0.8,0.1-1.1,0.2c-3.6,0.5-6.8,1-9.7,1.4  c-0.8,0.1-1.7,0.3-2.5,0.4l-0.6,0.1l-1.6-9.3c-0.2-0.9-0.6-1.6-1.3-2.1c-0.6-0.4-1.2-0.6-1.9-0.6c-0.2,0-0.4,0-0.5,0  c-1.2,0.2-2.5,0.4-3.7,0.6c0.5,0.7,0.9,1.3,1.4,2c1.6,2.3,3.3,4.5,5,6.7c1.2,1.6,2.4,3.1,3.7,4.7c0.5,0.7,1.1,1.3,1.6,2  c0.4-0.1,0.8-0.1,1.2-0.2c0.4-0.1,0.8-0.1,1.3-0.2c2.5-0.4,5.3-0.8,8.4-1.2c0.5-0.1,0.9-0.1,1.4-0.2c0.4-0.1,0.7-0.1,1.1-0.1  c0.5-0.1,1-0.1,1.5-0.2c52.7-6.9,106.1-7,158.8-0.2c0.5,0.1,1,0.1,1.5,0.2c0.8,0.1,1.6,0.2,2.5,0.3c3.1,0.4,6.2,0.8,9.7,1.4  c0.4,0.1,0.8,0.1,1.2,0.2c0.5-0.7,1.1-1.3,1.6-2c0.5-0.7,1.1-1.3,1.6-2L398.5,336.3z M406.2,324.6c-0.9-0.1-1.7,0.1-2.5,0.6  c-0.7,0.5-1.2,1.3-1.3,2.1l-0.2,1c0,0.1,0,0.1-0.1,0.2l-1.1,6.2c1-1.3,2-2.7,3-4c0.9-1.3,1.9-2.5,2.8-3.8c0.5-0.7,0.9-1.3,1.4-2  C407.6,324.9,406.9,324.8,406.2,324.6z"></path>	<path fill="#FFA23F" d="M554.7,370.7c-26.1-13-47.7-21.8-69.6-28.6h0c-8-2.5-16-4.7-24.3-6.7c-0.6-0.2-1.3-0.3-1.9-0.5  c-1.3-0.3-2.6-0.6-3.9-0.9c-7.6-1.7-15.4-3.4-23.6-5c-3.9-0.8-8-1.5-12.2-2.3c-3.6-0.6-7.2-1.3-11-1.9c-0.5,0.7-0.9,1.3-1.4,2  c-0.9,1.3-1.8,2.5-2.8,3.8c-1,1.4-2,2.7-3,4l-0.3,1.8l-1-0.1c-0.5,0.7-1,1.3-1.6,2c-0.5,0.7-1.1,1.3-1.6,2c0.4,0.1,0.9,0.1,1.3,0.2  l0.8,0.1l1.3,0.2l0.2,0h0c0.3,0.1,0.6,0.1,0.8,0.1l1.1,0.2l0.2,0h0.1c0.1,0,0.2,0,0.3,0.1l0.1,0c0.3,0,0.5,0.1,0.8,0.1  c0.2,0,0.4,0.1,0.6,0.1l0.2,0c0,0,0.1,0,0.1,0c3.5,0.6,7,1.2,10.6,1.9l0.1,0c0.1,0,0.1,0,0.2,0c0.1,0,0.3,0,0.4,0.1l0.2,0  c0.2,0,0.4,0.1,0.6,0.1c4.7,0.9,9.4,1.8,14,2.8l0.9,0.2c0.2,0,0.4,0.1,0.7,0.2c0,0,0.1,0,0.1,0c2.5,0.5,4.9,1.1,7.4,1.6  c0.6,0.1,1.1,0.3,1.6,0.4c0.3,0.1,0.5,0.1,0.8,0.2l0.1,0c0.3,0.1,0.5,0.1,0.8,0.2l0.4,0.1c0.1,0,0.2,0.1,0.4,0.1  c0.2,0,0.4,0.1,0.5,0.1l1,0.2c9.9,2.3,19.7,4.9,29.4,7.7c2.9,0.8,5.7,1.7,8.5,2.5c0,0,0.1,0,0.1,0c-0.3,1-0.6,1.9-0.9,2.9  c-5.4,17.6-10.8,35.2-16.2,52.8c-0.2,0.7-0.4,1.4-0.6,2.1c0,0,0,0,0,0l-0.4,1.4L465,420l-0.1,0.4c-0.1,0.3-0.2,0.7-0.3,1  c-0.7,2.3-1.4,4.6-2.1,7c-22.7-6.9-45.9-12.3-69.1-16.1c-0.4-0.1-0.8-0.1-1.1-0.2c-0.4-0.1-0.8-0.1-1.1-0.2h0  c-8.2-1.3-16.6-2.5-24.8-3.4c-0.5-0.1-0.9-0.1-1.4-0.2l-0.3,0c-0.5,0-0.9-0.1-1.3-0.1c-0.9-0.1-1.7-0.2-2.6-0.3h0  c-6.4-0.7-12.7-1.2-18.6-1.6c-0.4,0-0.7-0.1-1.1-0.1c-0.3,0-0.5,0-0.7-0.1h0c-0.1,0-0.2,0-0.3,0c-5.3-0.4-10.9-0.7-16.6-0.9  c-0.8,0-1.6-0.1-2.5-0.1c-0.2,0-0.4,0-0.5,0c-0.2,0-0.3,0-0.5,0c-0.4,0-0.7,0-1,0l-1.3,0h0l-1,0c-9.4-0.2-19.1-0.2-28.8,0  c-0.3,0-0.6,0-0.9,0c-0.4,0-0.8,0-1.2,0c-0.3,0-0.7,0-1,0c-0.2,0-0.4,0-0.6,0h-0.5c-0.8,0-1.7,0.1-2.5,0.1  c-5.5,0.2-11,0.5-16.6,0.9c-0.1,0-0.2,0-0.3,0c-0.2,0-0.5,0-0.7,0.1c-0.3,0-0.7,0-1,0.1h0c-6.4,0.5-12.7,1-18.8,1.7  c-0.9,0.1-1.7,0.2-2.6,0.3h-2.1v0.2c-0.3,0-0.6,0.1-1,0.1c-8.2,1-16.5,2.2-24.8,3.5c0,0-0.1,0-0.1,0c-0.3,0.1-0.6,0.1-0.9,0.2  l-0.5,0.1c-0.3,0-0.6,0.1-0.8,0.1c-22.7,3.8-45.3,9.2-67.3,15.8l-1.2-3.9c-0.4-1.1-0.7-2.3-1.1-3.4c-0.1-0.4-0.2-0.7-0.3-1.1  c-0.1-0.3-0.2-0.7-0.3-1c-0.1-0.3-0.2-0.7-0.3-1c0,0,0,0,0,0c-0.2-0.7-0.4-1.4-0.6-2.1c-3.5-11.5-7.1-23-10.6-34.5l-6-19.6v0  l-0.5-1.6c0,0,0,0,0.1,0h0c1.7-0.5,3.4-1,5.1-1.5c10.4-3.1,21-5.9,31.7-8.4c0.2,0,0.4-0.1,0.5-0.1l0.9-0.2l0.7-0.2  c0.3-0.1,0.5-0.1,0.9-0.2l0.1,0c0.3-0.1,0.6-0.1,0.9-0.2c0.5-0.1,1-0.2,1.5-0.4c2.5-0.6,4.8-1.1,7.1-1.6c0,0,0.1,0,0.1,0l1.6-0.3  c4.8-1,9.4-1.9,13.9-2.8l0.1,0c0.2-0.1,0.4-0.1,0.6-0.1l0.1,0c0.1,0,0.3-0.1,0.4-0.1c0.1,0,0.2,0,0.3-0.1c3.4-0.6,6.9-1.3,10.5-1.9  c0.3,0,0.6-0.1,0.9-0.2c0.3-0.1,0.5-0.1,0.9-0.1c0,0,0,0,0,0h0c0.2,0,0.5-0.1,0.7-0.1l0.3-0.1c0.3,0,0.6-0.1,0.9-0.1l0.2,0h0l0,0  c0.2,0,0.4-0.1,0.7-0.1l1.4-0.2h0l0,0l0.6-0.1c0.4-0.1,0.8-0.1,1.3-0.2c-0.5-0.6-1.1-1.3-1.6-2c-1.2-1.5-2.4-3.1-3.7-4.7  c-1.7-2.2-3.4-4.5-5-6.8c-0.5-0.7-0.9-1.3-1.4-2c-3.7,0.6-7.3,1.3-10.9,1.9c-4.2,0.8-8.3,1.5-12.4,2.3c-8.1,1.6-15.7,3.2-23.2,4.9  c-1.3,0.3-2.7,0.6-4,0.9c-0.7,0.2-1.3,0.3-2,0.5c-8,2-15.8,4.1-23.6,6.6h0c-21.6,6.7-43.1,15.5-68.8,28.3c-1.2,0.6-1.9,1.8-1.8,3.2  c0.1,1.3,1,2.5,2.2,2.9l46.4,16.1L83,438.5c-0.4,1.3,0,2.7,1,3.5c0.6,0.5,1.4,0.8,2.2,0.8c0.5,0,1-0.1,1.5-0.4  c18.5-9.2,34.2-15.8,49.3-21c0,0,0.1,0,0.1,0c0.1,0.4,0.3,0.9,0.4,1.3c0.3,1,0.6,2.1,1,3.1l1.5,4.9c0.3,0.8,0.8,1.6,1.6,2  c0.5,0.2,1,0.4,1.5,0.4c0.3,0,0.6-0.1,1-0.2c22.2-6.8,45-12.2,67.9-16c0.2-0.1,0.5-0.1,0.7-0.1l0.6-0.1c0.3,0,0.6-0.1,0.9-0.1  c8.2-1.4,16.5-2.5,24.6-3.5c0.4-0.1,0.9-0.1,1.3-0.2l0.3,0c0.4-0.1,0.8-0.1,1.2-0.1l2-0.2v-0.1c6.2-0.7,12.7-1.3,19.3-1.8h0.2  c0.3,0,0.6-0.1,0.8-0.1h0.1c0.3,0,0.6-0.1,0.9-0.1c6.4-0.5,12.8-0.8,18.9-1h0.6c0.1,0,0.1,0,0.2,0h0.1h0.1c0.3,0,0.5,0,0.9,0  c0.7,0,1.5-0.1,2.2-0.1c9.6-0.3,19.2-0.3,28.5,0l2.3,0.1c0.3,0,0.5,0,0.8,0h0.1c0.1,0,0.2,0,0.3,0h0.2c0.1,0,0.2,0,0.4,0h0.1  c6.5,0.2,12.8,0.5,19,0.9c0.3,0,0.6,0,0.9,0.1h0.1c0.3,0,0.6,0.1,0.9,0.1c6.8,0.5,13.9,1.1,21.2,1.9c0.4,0,0.8,0.1,1.2,0.1l0.3,0  c0.4,0,0.9,0.1,1.3,0.2c8.2,0.9,16.5,2.1,24.7,3.4c0.4,0.1,0.7,0.1,1.2,0.2c0.4,0.1,0.7,0.1,1.1,0.2c23.4,3.9,46.8,9.4,69.6,16.3  c0.8,0.3,1.7,0.2,2.5-0.2c0.8-0.4,1.4-1.1,1.6-1.9c0.8-2.6,1.6-5.1,2.4-7.7c0.1-0.4,0.3-0.9,0.4-1.3l0.1-0.3c0,0,0,0,0,0  c15.2,5.1,30.8,11.8,49.5,21c0.5,0.2,1,0.4,1.5,0.4c0.8,0,1.6-0.3,2.2-0.8c1-0.9,1.4-2.3,1-3.5L508,392.9l46.3-16.1  c1.3-0.4,2.1-1.6,2.2-2.9C556.6,372.6,555.9,371.4,554.7,370.7L554.7,370.7z M188.1,335l11.7-4.6l1.3,6.9c-0.3,0-0.6,0.1-0.9,0.1  c-3.9,0.6-7.7,1.3-11.3,2c-0.1,0-0.1,0-0.2,0c-0.3,0-0.6,0.1-0.8,0.2c-0.3,0-0.6,0.1-0.8,0.2c-4.5,0.8-9.1,1.8-14,2.8l-1.4,0.3  l-0.3,0.1c-2.7,0.6-5.5,1.2-8.6,1.9l8.8-3.4L188.1,335z M88,437.4l14.8-44.1c0.6-1.7-0.3-3.6-2-4.2l-44.9-15.6  c28.1-13.9,51.1-22.8,75.2-29.7h0c3.9-1.1,7.8-2.2,11.7-3.2h0c2.2-0.6,4.4-1.1,6.7-1.6c1.3-0.3,2.7-0.6,4-0.9  c6-1.4,12.1-2.7,18.5-3.9c3.8-0.8,7.7-1.5,11.7-2.2l-12,4.7l-14.1,5.5l-3.6,1.4l-27.7,10.9c-2,0.6-4,1.2-6,1.8  c-1.7,0.5-2.7,2.4-2.2,4.1l6.9,22.3c3.6,11.5,7.1,23.1,10.7,34.6C121,422.2,105.9,428.6,88,437.4z M433.2,342.7  c-0.1,0-0.2-0.1-0.3-0.1c-0.2,0-0.3-0.1-0.5-0.1l-0.8-0.2c-4.6-1-9.3-1.9-14-2.8c-0.3-0.1-0.5-0.1-0.7-0.1l-0.1,0  c-0.3-0.1-0.5-0.1-0.8-0.1c0,0-0.1,0-0.1,0c-3.6-0.7-7.1-1.3-10.6-1.8l1.1-6.6l10.3,4l16.4,6.4l8.2,3.2  C438.6,343.8,435.9,343.2,433.2,342.7z M505.5,389.1c-1.7,0.6-2.6,2.5-2,4.2l14.8,44.1c-17.8-8.8-33.1-15.2-47.8-20.2  c5.8-18.9,11.7-37.9,17.5-56.9c0.3-0.9,0.2-1.7-0.2-2.5c-0.4-0.8-1.1-1.4-2-1.6c-3.2-1-6.4-1.9-9.6-2.8l-25.5-10l-3.6-1.4  l-14.3-5.6l-12.2-4.8c4,0.7,8,1.5,11.8,2.2c6.5,1.3,12.8,2.6,18.9,4c1.4,0.3,2.7,0.6,4,0.9c1.9,0.4,3.7,0.9,5.5,1.3  c4.8,1.2,9.5,2.4,14.2,3.8h0.1c24.1,6.9,47.1,15.8,75.2,29.7L505.5,389.1z"></path>	<path fill="#FFA23F" stroke="#FFA23F" stroke-width="0.3" stroke-miterlimit="10" d="M172,383.5c-1.4-5.2-2.1-7.8-3.5-13  c3.5-0.9,5.2-1.4,8.7-2.2c0.1,0.3,0.1,0.5,0.2,0.7c-0.5,0.1-0.7,0.2-1.1,0.3c-1.3,0.3-1.8,0.8-2.2,1.7c-0.2,0.6-0.2,1.7,0.3,3.4  c1.9,7.5,2.9,11.3,4.8,18.9c0.5,1.7,0.9,2.8,1.4,3.1c0.7,0.6,1.4,0.8,2.6,0.5c0.5-0.1,0.7-0.2,1.1-0.3c0.1,0.3,0.1,0.5,0.2,0.8  c-3.3,0.8-4.9,1.2-8.2,2.1c-1.5-5.7-2.3-8.5-3.8-14.1c-6.6,1.7-9.8,2.7-16.3,4.7c1.7,5.6,2.6,8.4,4.2,14c-3.2,1-4.9,1.5-8.1,2.5  l-0.3-0.8c0.4-0.1,0.7-0.2,1.1-0.4c1.2-0.4,1.6-0.9,2-1.7c0.2-0.6,0.1-1.7-0.5-3.4c-2.3-7.4-3.5-11.2-5.8-18.6  c-0.5-1.7-1.1-2.7-1.6-3.1c-0.8-0.5-1.5-0.7-2.8-0.3c-0.5,0.1-0.7,0.2-1.1,0.4c-0.1-0.3-0.1-0.4-0.2-0.7c3.4-1.1,5.1-1.6,8.6-2.7  c1.6,5.1,2.3,7.7,3.9,12.8C162.1,386.2,165.4,385.3,172,383.5L172,383.5z"></path>	<path fill="#FFA23F" stroke="#FFA23F" stroke-width="0.3" stroke-miterlimit="10" d="M205.3,392.8c-0.9,0.2-1.3,0.3-2.2,0.5  c-2.6,0.5-3.9,0.8-6.6,1.4c-0.1-0.3-0.1-0.5-0.2-0.8c0.5-0.1,0.7-0.1,1.1-0.2c1.2-0.3,1.7-0.7,2.1-1.6c0.3-0.6,0.2-1.7-0.1-3.4  c-1.6-7.6-2.4-11.4-4-19.1c-0.4-1.8-0.8-2.8-1.3-3.2c-0.8-0.6-1.4-0.8-2.7-0.6c-0.5,0.1-0.7,0.2-1.1,0.3c-0.1-0.3-0.1-0.5-0.2-0.8  c3.7-0.8,5.6-1.2,9.4-2c6.7-1.3,10-2,16.7-3.1c0.1,0.8,0.2,1.2,0.3,1.9c-6.7,1.1-10,1.7-16.6,3.1c0.9,4.5,1.4,6.7,2.3,11.2  c6.5-1.3,9.8-1.9,16.3-3c0.1,0.8,0.2,1.2,0.3,2c-6.5,1.1-9.7,1.7-16.2,3c1,4.9,1.5,7.3,2.5,12.2c6.3-1.3,9.5-1.8,15.8-2.9  c0.1,0.8,0.2,1.3,0.4,2.1C214.7,391,211.6,391.6,205.3,392.8L205.3,392.8z"></path>	<path fill="#FFA23F" stroke="#FFA23F" stroke-width="0.3" stroke-miterlimit="10" d="M258.2,384.4c0.5,0,0.7-0.1,1.1-0.1  c0,0.3,0,0.5,0.1,0.8c-3.5,0.3-5.2,0.5-8.7,0.8c-5.2-6.2-7.9-9.2-13.3-15.2c1.6-0.2,2.4-0.3,3.9-0.5c6-0.7,8.6-2.6,8.2-6.4  c-0.5-5-6.8-4.9-10-4.9c-2.8,0-11.4,0.2-11.4,0.2c0-0.3-0.1-0.4-0.1-0.7c4.8-0.7,7.2-1,12-1.6c2.2-0.3,12.8-1.5,13.5,6.5  c0.5,4.8-2,7.6-10.5,8.7c3.5,3.9,5.3,5.9,8.7,9.8C252.9,383,256.6,384.5,258.2,384.4L258.2,384.4z"></path>	<path fill="#FFA23F" stroke="#FFA23F" stroke-width="0.3" stroke-miterlimit="10" d="M285.6,384.3c-8.9,0.3-16.6-6.3-17.1-15  c-0.5-8.7,6.7-16.2,16.2-16.5c1.9-0.1,3.5,0.2,4.9,0.7c2.5,1,5.6,2.7,5.5-0.9c0.3,0,0.5,0,0.8,0c0,3.1,0,4.6,0.1,7.7  c-0.6,0-0.9,0-1.6,0c-2.1-4.2-5.1-6.1-9.7-5.9c-6.8,0.2-12.2,6-11.7,14.7c0.5,8.7,6.1,13.9,12.6,13.7c4.3-0.1,7.7-2.9,9.7-7.2  c0.7,0.3,1,0.4,1.7,0.7C294.4,381.2,291.2,384.1,285.6,384.3z"></path>	<path fill="#FFA23F" stroke="#FFA23F" stroke-width="0.3" stroke-miterlimit="10" d="M337.3,354.7c2.8,0.2,4.3,0.3,7.1,0.6  c0,0.3,0,0.5-0.1,0.8c-0.5,0-0.7-0.1-1.2-0.1c-1.3-0.1-1.9,0.2-2.6,0.9c-0.4,0.4-0.7,1.5-0.9,3.3c-0.5,5.9-0.7,8.8-1.2,14.7  c-0.3,3.6-1,10.6-13.2,10c-12.6-0.7-11.7-11.3-11.7-11.3c0.2-5.9,0.2-8.9,0.4-14.7c0.1-1.8-0.2-2.9-0.5-3.4  c-0.6-0.7-1.2-1.2-2.5-1.2c-0.5,0-0.7,0-1.2,0c0-0.3,0-0.5,0-0.8c3.8,0.1,5.8,0.1,9.6,0.3c-0.3,8-0.5,12-0.8,20  c-0.3,8.1,4.4,9,6.9,9.1c10.4,0.5,10.2-6.7,10.3-8.1c0.3-4.4,0.5-6.6,0.8-11C336.9,360.1,337,358.3,337.3,354.7L337.3,354.7z"></path>	<path fill="#FFA23F" stroke="#FFA23F" stroke-width="0.3" stroke-miterlimit="10" d="M360.6,387.2c-2.7-0.3-4-0.5-6.7-0.8  c0-0.3,0.1-0.5,0.1-0.8c0.5,0.1,0.7,0.1,1.1,0.1c1.2,0.1,1.8-0.1,2.5-0.8c0.5-0.4,0.8-1.5,1-3.3c0.9-7.7,1.4-11.6,2.4-19.3  c0.2-1.8,0.1-2.9-0.2-3.4c-0.6-0.8-1.1-1.3-2.4-1.4c-0.5-0.1-0.7-0.1-1.2-0.1c0-0.3,0.1-0.5,0.1-0.8c3.8,0.4,5.7,0.7,9.5,1.2  c-1.5,11.1-2.2,16.6-3.7,27.7c6.4,0.8,9.5,1.3,15.9,2.4c-0.1,0.8-0.2,1.3-0.4,2.1c-6.3-1-9.5-1.5-15.8-2.4  C362,387.4,361.5,387.3,360.6,387.2L360.6,387.2z"></path>	<path fill="#FFA23F" stroke="#FFA23F" stroke-width="0.3" stroke-miterlimit="10" d="M399.6,393.8c-0.9-0.2-1.3-0.3-2.2-0.5  c-2.6-0.6-4-0.8-6.6-1.3c0.1-0.3,0.1-0.5,0.2-0.8c0.5,0.1,0.7,0.1,1.1,0.2c1.2,0.2,1.8,0,2.5-0.6c0.5-0.4,0.9-1.5,1.2-3.2  c1.5-7.6,2.3-11.5,3.8-19.1c0.4-1.8,0.4-2.9,0.1-3.5c-0.5-0.8-1-1.3-2.3-1.6c-0.5-0.1-0.7-0.1-1.1-0.2c0.1-0.3,0.1-0.5,0.1-0.8  c3.8,0.7,5.6,1.1,9.4,1.9c6.7,1.4,10,2.2,16.6,3.8c-0.2,0.8-0.3,1.2-0.5,1.9c-6.6-1.6-9.9-2.4-16.5-3.8c-0.9,4.5-1.4,6.7-2.4,11.2  c6.5,1.4,9.7,2.1,16.2,3.7c-0.2,0.8-0.3,1.2-0.5,2c-6.4-1.6-9.6-2.3-16.1-3.7c-1,4.9-1.6,7.3-2.6,12.2c6.3,1.3,9.4,2.1,15.7,3.6  c-0.2,0.8-0.3,1.3-0.5,2.1C409,395.8,405.8,395.1,399.6,393.8L399.6,393.8z"></path>	<path fill="#FFA23F" stroke="#FFA23F" stroke-width="0.3" stroke-miterlimit="10" d="M446.1,373.9c1.8,0.5,3.3,1.3,4.4,2.2  c2.1,1.8,4.5,4.3,5.6,0.9c0.3,0.1,0.5,0.2,0.8,0.3c-0.9,2.9-1.4,4.4-2.4,7.4c-0.6-0.2-0.9-0.3-1.5-0.5c-0.7-4.7-3-7.4-7.4-8.7  c-6.6-2-10.9,3.4-2,11.4c13,11.7,4.5,20.3-6.3,17.1c-1.9-0.6-3.1-1.2-4.2-2c-2.1-1.7-4.4-4-5.3-0.5c-0.3-0.1-0.5-0.1-0.8-0.2  c0.8-3,1.2-4.5,1.9-7.5c0.6,0.2,0.9,0.2,1.5,0.4c0.9,4.6,3.2,7.1,7.3,8.3c5.7,1.7,11.7-4.6,1-13.6  C428.3,380,436.9,371.1,446.1,373.9z"></path></g></svg>